<?xml version="1.0" standalone="no"?><!DOCTYPE svg PUBLIC "-//W3C//DTD SVG 1.1//EN" "http://www.w3.org/Graphics/SVG/1.1/DTD/svg11.dtd" ><svg xmlns="http://www.w3.org/2000/svg"><metadata>Generated by Glyphter</metadata><defs><font id="Glyphter" horiz-adv-x="0"><font-face units-per-em="1024" ascent="1024" descent="0" font-family="Glyphter" font-weight="normal" /><missing-glyph horiz-adv-x="0" /><glyph unicode="&#x0041;" d="M0,960C0,960,1024,960,1024,960C1024,960,1024,832,1024,832C1024,832,0,832,0,832C0,832,0,960,0,960C0,960,0,960,0,960M0,576C0,576,0,704,0,704C0,704,1024,704,1024,704C1024,704,1024,576,1024,576C1024,576,0,576,0,576C0,576,0,576,0,576M0,320C0,320,0,448,0,448C0,448,1024,448,1024,448C1024,448,1024,320,1024,320C1024,320,0,320,0,320C0,320,0,320,0,320M0,64C0,64,0,192,0,192C0,192,512,192,512,192C512,192,512,64,512,64C512,64,0,64,0,64C0,64,0,64,0,64" class="icon-align-justify"/><glyph unicode="&#x0042;" d="M0,960C0,960,1024,960,1024,960C1024,960,1024,832,1024,832C1024,832,0,832,0,832C0,832,0,960,0,960C0,960,0,960,0,960M768,704C768,704,768,576,768,576C768,576,0,576,0,576C0,576,0,704,0,704C0,704,768,704,768,704C768,704,768,704,768,704M0,320C0,320,0,448,0,448C0,448,896,448,896,448C896,448,896,320,896,320C896,320,0,320,0,320C0,320,0,320,0,320M0,64C0,64,0,192,0,192C0,192,640,192,640,192C640,192,640,64,640,64C640,64,0,64,0,64C0,64,0,64,0,64" class="icon-align-left"/><glyph unicode="&#x0043;" d="M0,960C0,960,1024,960,1024,960C1024,960,1024,832,1024,832C1024,832,0,832,0,832C0,832,0,960,0,960C0,960,0,960,0,960M256,576C256,576,256,704,256,704C256,704,1024,704,1024,704C1024,704,1024,576,1024,576C1024,576,256,576,256,576C256,576,256,576,256,576M128,320C128,320,128,448,128,448C128,448,1024,448,1024,448C1024,448,1024,320,1024,320C1024,320,128,320,128,320C128,320,128,320,128,320M384,64C384,64,384,192,384,192C384,192,1024,192,1024,192C1024,192,1024,64,1024,64C1024,64,384,64,384,64C384,64,384,64,384,64" class="icon-align-right"/><glyph unicode="&#x0044;" d="M0,960C0,960,1024,960,1024,960C1024,960,1024,832,1024,832C1024,832,0,832,0,832C0,832,0,960,0,960C0,960,0,960,0,960M128,704C128,704,896,704,896,704C896,704,896,576,896,576C896,576,128,576,128,576C128,576,128,704,128,704C128,704,128,704,128,704M64,320C64,320,64,448,64,448C64,448,960,448,960,448C960,448,960,320,960,320C960,320,64,320,64,320C64,320,64,320,64,320M192,64C192,64,192,192,192,192C192,192,832,192,832,192C832,192,832,64,832,64C832,64,192,64,192,64C192,64,192,64,192,64" class="icon-align-center"/><glyph unicode="&#x0045;" d="M666.42,1024C666.42,1024,666.42,550.526,666.42,550.526C666.42,490.425,654.308,446.341,630.094,418.232C605.869,390.134,566.909,376.08,513.204,376.08C457.677,376.08,417.917,390.025,393.889,417.969C369.851,445.869,357.837,489.711,357.837,549.451C357.837,549.451,357.837,1024,357.837,1024C357.837,1024,194,1024,194,1024C194,1024,194,524.546,194,524.546C194,435.831,221.56,365.92,276.714,314.848C331.846,263.765,409.249,238.234,508.936,238.234C575.017,238.234,632.31,249.711,680.716,272.718C729.155,295.692,766.184,328.716,791.802,371.867C817.432,414.985,830.235,465.168,830.235,522.439C830.235,522.439,830.235,1024,830.235,1024C830.235,1024,666.42,1024,666.42,1024C666.42,1024,666.42,1024,666.42,1024M194,158.351C194,158.351,194,0,194,0C194,0,830.235,0,830.235,0C830.235,0,830.235,158.351,830.235,158.351C830.235,158.351,194,158.351,194,158.351" class="icon-underline"/><glyph unicode="&#x0046;" d="M130,1024C130,1024,579.323,1024,579.323,1024C667.527,1024,737.903,1000.077,790.387,952.252C842.871,904.418,869.115,842.426,869.115,766.252C869.115,720.295,857.615,678.36,834.626,640.512C811.623,602.665,777.371,573.296,731.857,552.412C795.741,528.256,819.666,496.203,849.727,456.259C879.785,416.319,894.848,365.008,894.848,302.333C894.848,214.08,862.98,141.64,799.319,84.966C735.637,28.322,674.53,0,569.953,0C569.953,0,130,0,130,0C130,0,130,1024,130,1024C130,1024,130,1024,130,1024M289.56,590.712C289.56,590.712,518.011,590.712,518.011,590.712C591.388,590.712,625.981,604.063,660.112,630.773C694.226,657.475,711.319,699.14,711.319,755.816C711.319,804.587,695.163,841.725,662.891,867.268C630.617,892.794,595.58,905.585,519.444,905.585C519.444,905.585,289.56,905.585,289.56,905.585C289.56,905.585,289.56,590.712,289.56,590.712C289.56,590.712,289.56,590.712,289.56,590.712M289.56,118.438C289.56,118.438,561.91,118.438,561.91,118.438C634.33,118.438,661.833,135.274,698.063,168.961C734.259,202.617,752.355,248.012,752.355,305.129C752.355,363.186,732.177,406.485,691.758,435.044C651.354,463.605,618.551,477.885,539.587,477.885C539.587,477.885,289.543,477.885,289.543,477.885C289.543,477.885,289.543,118.432,289.543,118.432C289.543,118.432,289.56,118.432,289.56,118.432C289.56,118.432,289.56,118.438,289.56,118.438" class="icon-bold"/><glyph unicode="&#x0047;" d="M829.665,1022.33C814.116,1021.214,798.997,1020.208,784.326,1019.325C718.547,1015.335,670.985,1013.329,641.66,1013.329C626.548,1013.329,610.319,1013.78,592.994,1014.662C592.994,1014.662,381.671,1024,381.671,1024C381.671,1024,369.001,955.332,369.001,955.332C373.443,954.45,381.891,953.553,394.336,952.663C440.107,950.006,472.111,943.776,490.333,934C490.333,934,490.333,908.665,490.333,908.665C490.333,908.665,485,875.34,485,875.34C485,875.34,470.336,785.339,470.336,785.339C470.336,785.339,459.665,743.337,459.665,743.337C459.665,743.337,440.331,638.673,440.331,638.673C440.331,638.222,439.551,635.665,437.996,630.998C436.441,626.335,434.438,619.558,432,610.671C429.55,601.777,426.779,591.443,423.662,579.667C420.544,567.894,416.993,552.999,412.991,534.999C408.991,517.003,405.21,498.22,401.659,478.669C401.659,478.669,393.654,435.999,393.654,435.999C393.654,435.999,356.327,257.332,356.327,257.332C356.327,257.332,338.324,164.686,338.324,164.686C332.989,136.224,323.884,113.778,310.995,97.349C293.216,88.452,267.438,79.792,233.66,71.337C201.217,62.9,184.109,58.455,182.332,58.009C182.332,58.009,171,1.331,171,1.331C181.659,2.218,203.436,4.215,236.329,7.339C295.439,12.67,334.105,15.114,352.322,14.669C352.322,14.669,484.325,13.342,484.325,13.342C540.316,7.556,572.534,3.785,580.973,1.996C589.419,0.67,595.644,0,599.639,0C607.646,0,616.972,0.446,627.638,1.333C629.859,1.772,634.975,1.996,642.972,1.996C643.859,6.438,645.856,15.558,648.971,29.342C651.626,42.231,653.183,55.118,653.638,68.014C640.294,70.228,625.639,72.458,609.624,74.664C585.197,77.333,558.739,82.008,530.292,88.665C528.975,97.549,528.748,103.55,529.636,106.668C529.636,106.668,537.645,136.665,537.645,136.665C537.645,136.665,566.314,293.323,566.314,293.323C566.314,293.323,591.646,398.658,591.646,398.658C591.646,398.658,632.318,605.99,632.318,605.99C642.085,653.547,656.756,721.535,676.325,809.99C678.107,826.877,680.984,845.101,684.995,864.659C690.324,889.989,695.669,909.54,700.992,923.326C717.438,929.988,739.891,936.874,768.325,943.986C792.342,949.313,816.554,956.203,840.992,964.647C843.668,974.426,846.571,985.757,849.669,998.647C851.46,1007.097,852.786,1015.536,853.664,1023.977C853.223,1023.993,845.216,1023.44,829.665,1022.33C829.665,1022.33,829.665,1022.33,829.665,1022.33" class="icon-italic"/><glyph unicode="&#x0048;" d="M814.663,422.271C825.829,395.87,831.549,365.543,831.549,331.053C831.549,240.845,798.557,167.607,732.628,111.347C666.679,55.105,578.574,27,468.382,27C339.897,27,242.694,53.678,176.727,107.072C110.787,160.464,77.233,240.809,76.109,348.183C76.109,348.183,225.134,348.183,225.134,348.183C227.412,284.809,248.387,237.714,288.065,206.861C327.759,176.043,387.3,160.599,466.657,160.599C531.197,160.599,582.414,173.433,620.396,199.14C658.396,224.844,677.371,260.514,677.371,306.202C677.371,338.756,665.073,364.743,640.551,384.15C623.612,397.505,594.951,410.219,555.195,422.253C555.195,422.253,814.657,422.253,814.657,422.253C814.657,422.253,814.657,422.271,814.657,422.271C814.657,422.271,814.663,422.271,814.663,422.271M456.898,602.141C456.898,602.141,421.305,611.132,421.305,611.132C351.045,628.819,305.348,645.543,284.26,661.228C263.105,676.926,252.566,701.332,252.566,734.465C252.566,776.135,270.408,808.118,306.095,830.397C341.783,852.676,384.74,863.789,435.007,863.789C504.078,863.789,557.042,851.808,593.877,827.813C630.695,803.834,650.261,764.43,652.553,709.624C652.553,709.624,801.596,709.624,801.596,709.624C798.189,793.553,766.918,862.509,707.789,916.468C648.699,970.445,563.76,997.403,452.967,997.403C349.053,997.403,264.817,971.134,200.295,918.602C135.773,866.064,103.52,794.689,103.52,704.472C103.52,665.395,111.64,631.367,127.511,602.105C127.511,602.105,456.895,602.105,456.895,602.105C456.895,602.105,456.895,602.141,456.895,602.141C456.895,602.141,456.898,602.141,456.898,602.141M979.483,557.62C979.483,557.62,44.52,557.62,44.52,557.62C19.928,557.62,0,537.686,0,513.097C0,488.5,19.928,468.565,44.52,468.565C44.52,468.565,979.48,468.565,979.48,468.565C1004.069,468.565,1024,488.497,1024,513.097C1024,537.686,1004.072,557.62,979.483,557.62C979.483,557.62,979.483,557.62,979.483,557.62" class="icon-strokethrough"/><glyph unicode="&#x0049;" d="M713.588,986.774C713.588,986.774,484.29,617.102,484.29,617.102C484.29,617.102,728.703,223.309,728.703,223.309C728.703,223.309,558.76,223.309,558.76,223.309C558.76,223.309,449.149,406.76,449.149,406.76C432.398,435.036,416.338,463.816,401.035,492.88C401.035,492.88,385.417,523.077,385.417,523.077C385.417,523.077,369.169,552.708,369.169,552.708C369.169,552.708,366.965,552.708,366.965,552.708C366.965,552.708,350.717,522.511,350.717,522.511C331.32,485.89,309.341,447.348,284.654,406.697C284.654,406.697,174.508,223.246,174.508,223.246C174.508,223.246,0,223.246,0,223.246C0,223.246,250.584,617.039,250.584,617.039C250.584,617.039,17.917,986.743,17.917,986.743C17.917,986.743,190.693,986.743,190.693,986.743C190.693,986.743,292.432,816.706,292.432,816.706C308.523,789.878,323.605,763.396,337.712,737.324C337.712,737.324,351.724,710.496,351.724,710.496C351.724,710.496,365.705,683.605,365.705,683.605C365.705,683.605,367.878,683.605,367.878,683.605C374.207,695.539,378.867,704.45,381.859,710.496C381.859,710.496,395.808,736.757,395.808,736.757C407.742,759.87,422.699,786.32,440.585,816.139C440.585,816.139,542.355,986.743,542.355,986.743C542.355,986.743,713.588,986.774,713.588,986.774C713.588,986.774,713.588,986.774,713.588,986.774C713.588,986.774,713.588,986.774,713.588,986.774M1024,93.231C1024,93.231,1024,38,1024,38C1024,38,746.273,38,746.273,38C746.273,38,746.273,112.848,746.273,112.848C746.273,151.547,753.263,177.367,767.118,190.152C781.005,202.81,814.099,213.894,866.307,223.246C909.54,230.929,935.14,238.077,943.107,244.343C951.105,250.735,955.041,267.298,955.041,293.717C955.041,319.254,951.105,335.281,943.107,342.114C935.108,349.01,916.184,352.379,886.113,352.379C855.286,352.379,835.731,348.947,827.733,341.988C819.672,335.092,815.61,318.246,815.61,291.481C815.61,291.481,815.61,275.926,815.61,275.926C815.61,275.926,747.218,275.926,747.218,275.926C747.218,275.926,747.218,291.229,747.218,291.229C747.218,337.359,756.759,368.407,775.715,384.34C794.734,400.336,831.575,408.334,886.396,408.334C939.8,408.334,976.201,400.21,995.251,384.088C1014.333,367.903,1023.937,337.233,1023.937,292.016C1023.937,249.35,1016.663,220.695,1002.147,206.242C987.631,191.883,954.19,179.697,901.762,170.062C858.529,162.19,833.433,155.546,826.316,150.004C819.294,144.462,815.862,128.907,815.862,103.086C815.862,103.086,815.862,93.136,815.862,93.136C815.862,93.136,1024,93.231,1024,93.231C1024,93.231,1024,93.231,1024,93.231C1024,93.231,1024,93.231,1024,93.231" class="icon-subscript"/><glyph unicode="&#x004a;" d="M496.242,413.655C496.242,413.655,746.352,10.629,746.352,10.629C746.352,10.629,572.393,10.629,572.393,10.629C572.393,10.629,460.245,198.349,460.245,198.349C443.068,227.353,426.697,256.743,411.035,286.521C411.035,286.521,394.986,317.426,394.986,317.426C394.986,317.426,378.389,347.751,378.389,347.751C378.389,347.751,376.133,347.751,376.133,347.751C376.133,347.751,359.536,316.846,359.536,316.846C339.653,279.399,317.159,239.857,291.893,198.252C291.893,198.252,179.164,10.5,179.164,10.5C179.164,10.5,0.5,10.5,0.5,10.5C0.5,10.5,256.991,413.59,256.991,413.59C256.991,413.59,18.869,791.963,18.869,791.963C18.869,791.963,195.761,791.963,195.761,791.963C195.761,791.963,299.853,617.971,299.853,617.971C316.353,590.45,331.725,563.412,346.195,536.728C346.195,536.728,360.535,509.271,360.535,509.271C360.535,509.271,374.78,481.717,374.78,481.717C374.78,481.717,377.036,481.717,377.036,481.717C383.513,493.931,388.315,503.083,391.376,509.271C391.376,509.271,405.621,536.148,405.621,536.148C417.834,559.77,433.142,586.873,451.447,617.391C451.447,617.391,555.571,791.995,555.571,791.995C555.571,791.995,730.755,791.995,730.755,791.995C730.755,791.995,496.242,413.655,496.242,413.655C496.242,413.655,496.242,413.655,496.242,413.655M811.45,701.47C811.45,727.896,815.027,743.881,822.214,749.488C829.4,755.16,855.085,761.96,899.332,770.016C952.957,779.974,987.278,792.349,1002.103,807.077C1016.959,821.869,1024.307,851.098,1024.307,894.83C1024.307,941.107,1014.542,972.496,995.045,989.061C975.483,1005.561,938.262,1013.907,883.638,1013.907C827.628,1013.907,789.858,1005.689,770.329,989.318C750.864,973.012,741.132,941.236,741.132,894.024C741.132,894.024,741.132,878.394,741.132,878.394C741.132,878.394,811.192,878.394,811.192,878.394C811.192,878.394,811.192,894.314,811.192,894.314C811.192,921.707,815.285,938.948,823.535,946.006C831.849,953.063,851.733,956.641,883.283,956.641C913.995,956.641,933.46,953.128,941.645,946.135C949.831,939.142,953.924,922.641,953.924,896.538C953.924,869.403,949.831,852.549,941.645,846.039C933.46,839.561,907.292,832.278,863.045,824.415C809.613,814.844,775.743,803.596,761.531,790.545C747.384,777.493,740.261,751.067,740.261,711.428C740.261,711.428,740.261,634.826,740.261,634.826C740.261,634.826,1024.5,634.826,1024.5,634.826C1024.5,634.826,1024.5,691.351,1024.5,691.351C1024.5,691.351,811.579,691.351,811.579,691.351C811.579,691.351,811.45,701.47,811.45,701.47C811.45,701.47,811.45,701.47,811.45,701.47C811.45,701.47,811.45,701.47,811.45,701.47" class="icon-superscript"/><glyph unicode="&#x004b;" d="M464.596,47.5C482.552,47.5,497.113,62.06,497.113,80.016C497.113,97.956,482.552,112.532,464.596,112.532C244.288,112.532,65.032,291.788,65.032,512.112C65.032,732.453,244.288,911.709,464.596,911.709C684.969,911.709,864.209,732.453,864.241,510.767C864.289,509.87,866.723,441.458,846.605,374.52C846.605,374.52,816.604,448.794,816.604,448.794C809.876,465.421,790.943,473.413,774.285,466.766C757.626,460.039,749.585,441.09,756.313,424.431C756.313,424.431,814.666,279.966,814.666,279.966C815.066,278.973,815.755,278.172,816.219,277.243C816.492,276.779,816.46,276.234,816.732,275.77C817.1,275.129,817.645,274.697,818.029,274.088C818.862,272.887,819.727,271.749,820.688,270.66C821.697,269.539,822.739,268.498,823.876,267.537C824.901,266.656,825.958,265.887,827.079,265.15C828.361,264.301,829.674,263.58,831.084,262.923C832.269,262.363,833.454,261.882,834.72,261.466C836.226,260.953,837.747,260.633,839.317,260.361C840.102,260.216,840.823,259.88,841.624,259.8C842.136,259.752,842.649,259.88,843.177,259.864C843.738,259.832,844.283,259.656,844.859,259.656C845.852,259.656,846.861,259.944,847.871,260.04C849.152,260.168,850.417,260.265,851.667,260.537C853.236,260.857,854.678,261.418,856.184,261.994C857.417,262.443,858.618,262.875,859.788,263.484C860.252,263.724,860.765,263.804,861.197,264.077C861.197,264.077,1007.888,349.564,1007.888,349.564C1023.378,358.598,1028.599,378.508,1019.581,394.013C1010.547,409.518,990.573,414.74,975.1,405.722C975.1,405.722,912.534,369.234,912.534,369.234C931.74,441.794,929.401,508.957,929.241,512.08C929.241,768.285,720.817,976.709,464.596,976.709C208.44,976.709,0,768.285,0,512.08C0,255.908,208.44,47.5,464.596,47.5C464.596,47.5,464.596,47.5,464.596,47.5" class="icon-redo"/><glyph unicode="&#x004c;" d="M16.155,349.543C16.155,349.543,162.821,264.044,162.821,264.044C163.223,263.819,163.641,263.739,164.043,263.53C165.344,262.839,166.694,262.357,168.092,261.843C169.459,261.344,170.792,260.83,172.207,260.525C173.492,260.235,174.81,260.139,176.16,260.01C177.157,259.914,178.169,259.625,179.166,259.625C179.744,259.625,180.274,259.818,180.837,259.85C181.335,259.866,181.849,259.737,182.38,259.785C183.199,259.866,183.907,260.203,184.694,260.348C186.269,260.621,187.78,260.943,189.29,261.457C190.544,261.859,191.733,262.357,192.939,262.919C194.321,263.562,195.639,264.301,196.924,265.137C198.049,265.876,199.126,266.664,200.139,267.532C201.264,268.496,202.292,269.541,203.321,270.666C204.285,271.758,205.169,272.883,205.989,274.105C206.358,274.7,206.921,275.133,207.274,275.776C207.547,276.226,207.531,276.773,207.772,277.239C208.255,278.171,208.93,278.974,209.347,279.971C209.347,279.971,267.702,424.436,267.702,424.436C274.42,441.085,266.384,460.017,249.718,466.751C233.085,473.421,214.137,465.401,207.403,448.783C207.403,448.783,177.43,374.615,177.43,374.615C157.437,441.487,159.751,510.208,159.8,512.104C159.8,732.441,339.043,911.7,559.396,911.7C779.717,911.7,958.976,732.441,958.976,512.104C958.976,291.783,779.717,112.508,559.396,112.508C541.444,112.508,526.884,97.948,526.884,80.012C526.884,62.061,541.444,47.5,559.396,47.5C815.588,47.5,1024,255.912,1024,512.104C1024,768.296,815.588,976.725,559.396,976.725C303.204,976.725,94.775,768.28,94.791,513.406C94.631,509.372,92.284,441.873,111.489,369.215C111.489,369.215,48.876,405.713,48.876,405.713C33.367,414.777,13.455,409.505,4.423,393.997C-4.609,378.488,0.63,358.575,16.155,349.543C16.155,349.543,16.155,349.543,16.155,349.543" class="icon-undo"/><glyph unicode="&#x004d;" d="M604.117,150.19C604.117,150.19,1019.716,565.789,1019.716,565.789C1019.716,565.789,625.54,959.964,625.54,959.964C625.54,959.964,0,334.425,0,334.425C0,334.425,269.925,64.5,269.925,64.5C269.925,64.5,467.013,64.5,467.013,64.5C467.013,64.5,467.013,64.5,467.013,64.5C467.013,64.5,1024,64.5,1024,64.5C1024,64.5,1024,150.19,1024,150.19C1024,150.19,604.117,150.19,604.117,150.19C604.117,150.19,604.117,150.19,604.117,150.19M304.201,150.19C304.201,150.19,119.967,334.425,119.967,334.425C119.967,334.425,355.615,570.073,355.615,570.073C355.615,570.073,629.824,295.864,629.824,295.864C629.824,295.864,484.15,150.19,484.15,150.19C484.15,150.19,467.013,150.19,467.013,150.19C467.013,150.19,467.013,150.19,467.013,150.19C467.013,150.19,304.201,150.19,304.201,150.19C304.201,150.19,304.201,150.19,304.201,150.19" class="icon-erase"/><glyph unicode="&#x004e;" d="M917.285,256.429C917.285,256.429,718.994,256.429,718.994,256.429C718.994,256.429,667.136,402.714,667.136,402.714C667.136,402.714,391.607,402.714,391.607,402.714C391.607,402.714,339.749,256.429,339.749,256.429C339.749,256.429,146.286,256.429,146.286,256.429C146.286,256.429,421.303,987.857,421.303,987.857C421.303,987.857,642.267,987.857,642.267,987.857C642.267,987.857,917.285,256.429,917.285,256.429C917.285,256.429,917.285,256.429,917.285,256.429M620.983,549C620.983,549,529.408,815.752,529.408,815.752C529.408,815.752,437.76,549,437.76,549C437.76,549,620.983,549,620.983,549C620.983,549,620.983,549,620.983,549M0,183.286C0,183.286,1024,183.286,1024,183.286C1024,183.286,1024,37,1024,37C1024,37,0,37,0,37C0,37,0,183.286,0,183.286C0,183.286,0,183.286,0,183.286" class="icon-foreColor"/><glyph unicode="&#x004f;" d="M511.796,663.122C511.796,663.122,442.784,425.357,442.784,425.357C442.784,425.357,583.988,425.357,583.988,425.357C583.988,425.357,514.524,663.122,514.524,663.122C514.524,663.122,511.796,663.122,511.796,663.122M2.5,1024C2.5,1024,2.5,0,2.5,0C2.5,0,1022.067,0,1022.067,0C1022.067,0,1022.067,1024,1022.067,1024C1022.067,1024,2.5,1024,2.5,1024C2.5,1024,2.5,1024,2.5,1024M670.582,141.853C670.582,141.853,628.861,288.139,628.861,288.139C628.861,288.139,398.128,288.139,398.128,288.139C398.128,288.139,356.922,141.853,356.922,141.853C356.922,141.853,186.014,141.853,186.014,141.853C186.014,141.853,422.255,877.714,422.255,877.714C422.255,877.714,604.726,877.714,604.726,877.714C604.726,877.714,841.503,141.853,841.503,141.853C841.503,141.853,670.582,141.853,670.582,141.853C670.582,141.853,670.582,141.853,670.582,141.853" class="icon-hiliteColor"/><glyph unicode="&#x0050;" d="M1005.713,256.279C1005.713,256.279,18.283,256.279,18.283,256.279C13.332,256.279,9.047,254.485,5.428,250.861C1.807,247.24,0,242.957,0,238.001C0,238.001,0,128.281,0,128.281C0,123.336,1.807,119.057,5.428,115.432C9.049,111.803,13.332,110,18.283,110C18.283,110,1005.713,110,1005.713,110C1010.672,110,1014.951,111.807,1018.576,115.432C1022.199,119.057,1024,123.336,1024,128.281C1024,128.281,1024,238.001,1024,238.001C1024,242.959,1022.193,247.24,1018.576,250.863C1014.951,254.471,1010.67,256.279,1005.713,256.279C1005.713,256.279,1005.713,256.279,1005.713,256.279M201.147,329.438C206.096,329.438,210.383,331.231,214.002,334.856C217.619,338.472,219.43,342.76,219.43,347.719C219.43,347.719,219.43,676.851,219.43,676.851C219.43,681.805,217.619,686.092,214.002,689.714C210.381,693.329,206.094,695.136,201.147,695.136C195.809,695.136,191.431,693.427,188.003,689.997C188.003,689.997,23.431,525.429,23.431,525.429C20.011,521.996,18.291,517.621,18.291,512.285C18.291,506.951,20.003,502.57,23.431,499.145C23.431,499.145,188.003,334.568,188.003,334.568C191.431,331.143,195.809,329.438,201.147,329.438C201.147,329.438,201.147,329.438,201.147,329.438M1005.713,695.136C1005.713,695.136,384,695.136,384,695.136C379.048,695.136,374.763,693.335,371.144,689.714C367.524,686.092,365.716,681.805,365.716,676.851C365.716,676.851,365.716,567.137,365.716,567.137C365.716,562.187,367.524,557.9,371.144,554.28C374.765,550.671,379.048,548.852,384,548.852C384,548.852,1005.713,548.852,1005.713,548.852C1010.672,548.852,1014.951,550.663,1018.576,554.28C1022.199,557.9,1024,562.187,1024,567.137C1024,567.137,1024,676.851,1024,676.851C1024,681.805,1022.193,686.092,1018.576,689.714C1014.951,693.329,1010.67,695.136,1005.713,695.136C1005.713,695.136,1005.713,695.136,1005.713,695.136M1005.713,475.718C1005.713,475.718,384,475.718,384,475.718C379.048,475.718,374.763,473.897,371.144,470.286C367.526,466.676,365.716,462.375,365.716,457.429C365.716,457.429,365.716,347.719,365.716,347.719C365.716,342.76,367.524,338.472,371.144,334.856C374.765,331.237,379.048,329.438,384,329.438C384,329.438,1005.713,329.438,1005.713,329.438C1010.672,329.438,1014.951,331.231,1018.576,334.856C1022.199,338.472,1024,342.76,1024,347.719C1024,347.719,1024,457.429,1024,457.429C1024,462.375,1022.193,466.662,1018.576,470.286C1014.951,473.897,1010.67,475.718,1005.713,475.718C1005.713,475.718,1005.713,475.718,1005.713,475.718M1018.576,909.14C1014.951,912.753,1010.672,914.568,1005.713,914.568C1005.713,914.568,18.283,914.568,18.283,914.568C13.332,914.568,9.047,912.761,5.428,909.14C1.809,905.52,0,901.234,0,896.283C0,896.283,0,786.569,0,786.569C0,781.615,1.807,777.332,5.428,773.712C9.049,770.091,13.332,768.284,18.283,768.284C18.283,768.284,1005.713,768.284,1005.713,768.284C1010.672,768.284,1014.951,770.085,1018.576,773.712C1022.199,777.332,1024,781.615,1024,786.569C1024,786.569,1024,896.283,1024,896.283C1023.998,901.234,1022.191,905.52,1018.576,909.14C1018.576,909.14,1018.576,909.14,1018.576,909.14" class="icon-indent-left"/><glyph unicode="&#x0051;" d="M18.291,329.43C23.629,329.43,28.006,331.141,31.435,334.566C31.435,334.566,196.003,499.143,196.003,499.143C199.427,502.568,201.147,506.949,201.147,512.283C201.147,517.619,199.427,521.996,196.003,525.427C196.003,525.427,31.435,689.995,31.435,689.995C28.006,693.425,23.629,695.134,18.291,695.134C13.34,695.134,9.055,693.333,5.436,689.712C1.815,686.09,0.008,681.803,0.008,676.849C0.008,676.849,0.008,347.717,0.008,347.717C0.008,342.758,1.815,338.47,5.436,334.854C9.055,331.245,13.34,329.43,18.291,329.43C18.291,329.43,18.291,329.43,18.291,329.43M1005.713,256.279C1005.713,256.279,18.283,256.279,18.283,256.279C13.332,256.279,9.047,254.485,5.428,250.861C1.807,247.24,0,242.957,0,238.001C0,238.001,0,128.281,0,128.281C0,123.336,1.807,119.057,5.428,115.432C9.049,111.803,13.332,110,18.283,110C18.283,110,1005.713,110,1005.713,110C1010.672,110,1014.951,111.807,1018.576,115.432C1022.199,119.057,1024,123.336,1024,128.281C1024,128.281,1024,238.001,1024,238.001C1024,242.959,1022.193,247.24,1018.576,250.863C1014.951,254.471,1010.67,256.279,1005.713,256.279C1005.713,256.279,1005.713,256.279,1005.713,256.279M1005.713,475.718C1005.713,475.718,384,475.718,384,475.718C379.048,475.718,374.763,473.897,371.144,470.286C367.526,466.676,365.716,462.375,365.716,457.429C365.716,457.429,365.716,347.719,365.716,347.719C365.716,342.76,367.524,338.472,371.144,334.856C374.765,331.237,379.048,329.438,384,329.438C384,329.438,1005.713,329.438,1005.713,329.438C1010.672,329.438,1014.951,331.231,1018.576,334.856C1022.199,338.472,1024,342.76,1024,347.719C1024,347.719,1024,457.429,1024,457.429C1024,462.375,1022.193,466.662,1018.576,470.286C1014.951,473.897,1010.67,475.718,1005.713,475.718C1005.713,475.718,1005.713,475.718,1005.713,475.718M1005.713,695.136C1005.713,695.136,384,695.136,384,695.136C379.048,695.136,374.763,693.335,371.144,689.714C367.524,686.092,365.716,681.805,365.716,676.851C365.716,676.851,365.716,567.137,365.716,567.137C365.716,562.187,367.524,557.9,371.144,554.28C374.765,550.671,379.048,548.852,384,548.852C384,548.852,1005.713,548.852,1005.713,548.852C1010.672,548.852,1014.951,550.663,1018.576,554.28C1022.199,557.9,1024,562.187,1024,567.137C1024,567.137,1024,676.851,1024,676.851C1024,681.805,1022.193,686.092,1018.576,689.714C1014.951,693.329,1010.67,695.136,1005.713,695.136C1005.713,695.136,1005.713,695.136,1005.713,695.136M1018.576,909.14C1014.951,912.753,1010.672,914.568,1005.713,914.568C1005.713,914.568,18.283,914.568,18.283,914.568C13.332,914.568,9.047,912.761,5.428,909.14C1.809,905.52,0,901.234,0,896.283C0,896.283,0,786.569,0,786.569C0,781.615,1.807,777.332,5.428,773.712C9.049,770.091,13.332,768.284,18.283,768.284C18.283,768.284,1005.713,768.284,1005.713,768.284C1010.672,768.284,1014.951,770.085,1018.576,773.712C1022.199,777.332,1024,781.615,1024,786.569C1024,786.569,1024,896.283,1024,896.283C1023.998,901.234,1022.191,905.52,1018.576,909.14C1018.576,909.14,1018.576,909.14,1018.576,909.14" class="icon-indent-right"/><glyph unicode="&#x0052;" d="M219.449,219.725C219.449,189.23,208.793,163.342,187.45,141.999C166.107,120.656,140.22,110,109.725,110C79.23,110,53.342,120.656,31.999,141.999C10.656,163.342,0,189.23,0,219.725C0,250.22,10.656,276.107,31.999,297.45C53.342,318.793,79.23,329.449,109.725,329.449C140.22,329.449,166.107,318.793,187.45,297.45C208.793,276.107,219.449,250.22,219.449,219.725C219.449,219.725,219.449,219.725,219.449,219.725M219.449,512.291C219.449,481.796,208.793,455.909,187.45,434.566C166.107,413.223,140.22,402.567,109.725,402.567C79.23,402.567,53.342,413.223,31.999,434.566C10.656,455.909,0,481.796,0,512.291C0,542.786,10.656,568.674,31.999,590.017C53.342,611.36,79.23,622.016,109.725,622.016C140.22,622.016,166.107,611.36,187.45,590.017C208.793,568.674,219.449,542.786,219.449,512.291C219.449,512.291,219.449,512.291,219.449,512.291M1024,274.571C1024,274.571,1024,164.846,1024,164.846C1024,159.886,1022.176,155.599,1018.56,151.983C1014.944,148.367,1010.656,146.543,1005.697,146.543C1005.697,146.543,310.87,146.543,310.87,146.543C305.91,146.543,301.623,148.367,298.007,151.983C294.391,155.599,292.567,159.886,292.567,164.846C292.567,164.846,292.567,274.571,292.567,274.571C292.567,279.531,294.391,283.819,298.007,287.434C301.623,291.05,305.91,292.874,310.87,292.874C310.87,292.874,1005.697,292.874,1005.697,292.874C1010.656,292.874,1014.944,291.05,1018.56,287.434C1022.176,283.819,1024,279.531,1024,274.571C1024,274.571,1024,274.571,1024,274.571M219.449,804.858C219.449,774.363,208.793,748.476,187.45,727.133C166.107,705.789,140.22,695.134,109.725,695.134C79.23,695.134,53.342,705.789,31.999,727.133C10.656,748.476,0,774.363,0,804.858C0,835.353,10.656,861.241,31.999,882.584C53.342,903.927,79.23,914.583,109.725,914.583C140.22,914.583,166.107,903.927,187.45,882.584C208.793,861.241,219.449,835.353,219.449,804.858C219.449,804.858,219.449,804.858,219.449,804.858M1024,567.138C1024,567.138,1024,457.413,1024,457.413C1024,452.453,1022.176,448.165,1018.56,444.55C1014.944,440.934,1010.656,439.11,1005.697,439.11C1005.697,439.11,310.87,439.11,310.87,439.11C305.91,439.11,301.623,440.934,298.007,444.55C294.391,448.165,292.567,452.453,292.567,457.413C292.567,457.413,292.567,567.138,292.567,567.138C292.567,572.098,294.391,576.385,298.007,580.001C301.623,583.617,305.91,585.441,310.87,585.441C310.87,585.441,1005.697,585.441,1005.697,585.441C1010.656,585.441,1014.944,583.617,1018.56,580.001C1022.176,576.385,1024,572.098,1024,567.138C1024,567.138,1024,567.138,1024,567.138M1024,859.705C1024,859.705,1024,749.98,1024,749.98C1024,745.02,1022.176,740.732,1018.56,737.116C1014.944,733.501,1010.656,731.677,1005.697,731.677C1005.697,731.677,310.87,731.677,310.87,731.677C305.91,731.677,301.623,733.501,298.007,737.116C294.391,740.732,292.567,745.02,292.567,749.98C292.567,749.98,292.567,859.705,292.567,859.705C292.567,864.664,294.391,868.952,298.007,872.568C301.623,876.184,305.91,878.008,310.87,878.008C310.87,878.008,1005.697,878.008,1005.697,878.008C1010.656,878.008,1014.944,876.184,1018.56,872.568C1022.176,868.952,1024,864.664,1024,859.705C1024,859.705,1024,859.705,1024,859.705" /><glyph unicode="&#x0053;" d="M212.203,98.766C212.203,68.117,201.783,43.996,180.911,26.404C160.038,8.812,134.117,0,103.081,0C62.494,0,29.562,12.639,4.316,37.918C4.316,37.918,37.055,88.442,37.055,88.442C55.805,71.204,76.098,62.585,97.936,62.585C109.031,62.585,118.712,65.351,126.945,70.915C135.178,76.478,139.294,84.615,139.294,95.325C139.294,119.831,119.194,130.541,78.993,127.485C78.993,127.485,64.07,159.646,64.07,159.646C67.126,163.473,73.365,171.803,82.724,184.635C92.082,197.467,100.219,207.791,107.134,215.638C114.048,223.485,121.124,230.85,128.392,237.765C128.392,237.765,128.392,238.344,128.392,238.344C122.249,238.344,112.987,238.151,100.541,237.765C88.094,237.379,78.832,237.186,72.689,237.186C72.689,237.186,72.689,206.762,72.689,206.762C72.689,206.762,11.809,206.762,11.809,206.762C11.809,206.762,11.809,294.046,11.809,294.046C11.809,294.046,203.037,294.046,203.037,294.046C203.037,294.046,203.037,243.522,203.037,243.522C203.037,243.522,148.492,177.463,148.492,177.463C168.014,172.864,183.516,163.506,194.997,149.323C206.478,135.14,212.203,118.32,212.235,98.798C212.235,98.798,212.203,98.766,212.203,98.766M213.329,458.87C213.329,458.87,213.329,367.566,213.329,367.566C213.329,367.566,5.441,367.566,5.441,367.566C3.158,381.363,2,391.686,2,398.569C2,418.09,6.503,435.908,15.508,451.988C24.513,468.068,35.319,481.093,47.958,491.031C60.597,500.969,73.236,510.07,85.875,518.304C98.515,526.537,109.353,534.866,118.326,543.292C127.298,551.719,131.801,560.338,131.833,569.15C131.833,578.702,129.067,586.098,123.504,591.276C117.94,596.454,110.382,599.059,100.83,599.027C83.238,599.027,67.737,587.932,54.326,565.709C54.326,565.709,5.506,599.606,5.506,599.606C14.704,619.128,28.404,634.372,46.575,645.274C64.746,656.177,84.943,661.644,107.166,661.644C135.114,661.644,158.655,653.701,177.791,637.813C196.927,621.926,206.478,600.378,206.511,573.202C206.511,554.066,200.014,536.539,186.989,520.651C173.964,504.764,159.62,492.414,143.926,483.602C128.231,474.79,113.791,465.11,100.573,454.593C87.355,444.076,80.569,434.01,80.183,424.426C80.183,424.426,153.124,424.426,153.124,424.426C153.124,424.426,153.124,458.87,153.124,458.87C153.124,458.87,213.425,458.87,213.425,458.87C213.425,458.87,213.329,458.87,213.329,458.87M1022.527,275.65C1022.527,275.65,1022.527,165.371,1022.527,165.371C1022.527,160.386,1020.693,156.076,1017.059,152.442C1013.425,148.808,1009.116,146.975,1004.131,146.975C1004.131,146.975,305.791,146.975,305.791,146.975C300.806,146.975,296.496,148.808,292.862,152.442C289.228,156.076,287.395,160.386,287.395,165.371C287.395,165.371,287.395,275.65,287.395,275.65C287.395,281.021,289.132,285.427,292.573,288.868C296.014,292.31,300.42,294.046,305.791,294.046C305.791,294.046,1004.131,294.046,1004.131,294.046C1009.116,294.046,1013.425,292.213,1017.059,288.579C1020.693,284.945,1022.527,280.635,1022.527,275.65C1022.527,275.65,1022.527,275.65,1022.527,275.65M213.908,791.96C213.908,791.96,213.908,735.099,213.908,735.099C213.908,735.099,21.522,735.099,21.522,735.099C21.522,735.099,21.522,791.96,21.522,791.96C21.522,791.96,82.981,791.96,82.981,791.96C82.981,807.654,83.077,831.003,83.27,862.038C83.463,893.073,83.56,916.229,83.56,931.538C83.56,931.538,83.56,938.42,83.56,938.42C83.56,938.42,82.402,938.42,82.402,938.42C79.347,931.891,69.763,921.568,53.682,907.417C53.682,907.417,12.903,951.059,12.903,951.059C12.903,951.059,91.021,1024,91.021,1024C91.021,1024,151.902,1024,151.902,1024C151.902,1024,151.902,791.992,151.902,791.992C151.902,791.992,213.94,791.992,213.94,791.992C213.94,791.992,213.908,791.96,213.908,791.96M1022.527,569.696C1022.527,569.696,1022.527,459.417,1022.527,459.417C1022.527,454.432,1020.693,450.123,1017.059,446.488C1013.425,442.854,1009.116,441.021,1004.131,441.021C1004.131,441.021,305.791,441.021,305.791,441.021C300.806,441.021,296.496,442.854,292.862,446.488C289.228,450.123,287.395,454.432,287.395,459.417C287.395,459.417,287.395,569.696,287.395,569.696C287.395,575.067,289.132,579.473,292.573,582.915C296.014,586.356,300.42,588.092,305.791,588.092C305.791,588.092,1004.131,588.092,1004.131,588.092C1009.116,588.092,1013.425,586.259,1017.059,582.625C1020.693,578.991,1022.527,574.681,1022.527,569.696C1022.527,569.696,1022.527,569.696,1022.527,569.696M1022.527,863.743C1022.527,863.743,1022.527,753.463,1022.527,753.463C1022.527,748.478,1020.693,744.169,1017.059,740.535C1013.425,736.901,1009.116,735.067,1004.131,735.067C1004.131,735.067,305.791,735.067,305.791,735.067C300.806,735.067,296.496,736.901,292.862,740.535C289.228,744.169,287.395,748.478,287.395,753.463C287.395,753.463,287.395,863.743,287.395,863.743C287.395,868.728,289.228,873.037,292.862,876.671C296.496,880.306,300.806,882.139,305.791,882.139C305.791,882.139,1004.131,882.139,1004.131,882.139C1009.116,882.139,1013.425,880.306,1017.059,876.671C1020.693,873.037,1022.527,868.728,1022.527,863.743C1022.527,863.743,1022.527,863.743,1022.527,863.743" /><glyph unicode="&#x0054;" d="M0,744.726C0,744.726,279.274,744.726,279.274,744.726C279.274,744.726,279.274,1024,279.274,1024C279.274,1024,0,1024,0,1024C0,1024,0,744.726,0,744.726C0,744.726,0,744.726,0,744.726M372.369,744.726C372.369,744.726,651.643,744.726,651.643,744.726C651.643,744.726,651.643,1024,651.643,1024C651.643,1024,372.369,1024,372.369,1024C372.369,1024,372.369,744.726,372.369,744.726C372.369,744.726,372.369,744.726,372.369,744.726M744.726,1024C744.726,1024,744.726,744.726,744.726,744.726C744.726,744.726,1024,744.726,1024,744.726C1024,744.726,1024,1024,1024,1024C1024,1024,744.726,1024,744.726,1024C744.726,1024,744.726,1024,744.726,1024M0,372.369C0,372.369,279.274,372.369,279.274,372.369C279.274,372.369,279.274,651.631,279.274,651.631C279.274,651.631,0,651.631,0,651.631C0,651.631,0,372.369,0,372.369C0,372.369,0,372.369,0,372.369M372.369,372.369C372.369,372.369,651.643,372.369,651.643,372.369C651.643,372.369,651.643,651.631,651.643,651.631C651.643,651.631,372.369,651.631,372.369,651.631C372.369,651.631,372.369,372.369,372.369,372.369C372.369,372.369,372.369,372.369,372.369,372.369M744.726,372.369C744.726,372.369,1024,372.369,1024,372.369C1024,372.369,1024,651.631,1024,651.631C1024,651.631,744.726,651.631,744.726,651.631C744.726,651.631,744.726,372.369,744.726,372.369C744.726,372.369,744.726,372.369,744.726,372.369M0,0C0,0,279.274,0,279.274,0C279.274,0,279.274,279.274,279.274,279.274C279.274,279.274,0,279.274,0,279.274C0,279.274,0,0,0,0C0,0,0,0,0,0M372.369,0C372.369,0,651.643,0,651.643,0C651.643,0,651.643,279.274,651.643,279.274C651.643,279.274,372.369,279.274,372.369,279.274C372.369,279.274,372.369,0,372.369,0C372.369,0,372.369,0,372.369,0M744.726,0C744.726,0,1024,0,1024,0C1024,0,1024,279.274,1024,279.274C1024,279.274,744.726,279.274,744.726,279.274C744.726,279.274,744.726,0,744.726,0C744.726,0,744.726,0,744.726,0" class="icon-grid"/><glyph unicode="&#x0055;" d="M240.38,751.764C226.882,751.764,214.728,746.135,206.012,737.163C206.012,737.163,205.964,737.211,205.964,737.211C205.964,737.211,16.84,548.103,16.84,548.103C6.191,539.078,0.036,525.838,0,511.88C0,498.383,5.613,486.229,14.585,477.529C14.585,477.529,14.553,477.465,14.553,477.465C14.553,477.465,206.46,285.558,206.46,285.558C206.46,285.558,206.508,285.622,206.508,285.622C215.42,276.885,227.404,271.992,239.884,271.996C266.381,271.996,287.861,293.476,287.861,319.973C287.861,332.959,282.647,344.713,274.251,353.349C274.251,353.349,274.299,353.397,274.299,353.397C274.299,353.397,116.072,511.64,116.072,511.64C116.072,511.64,273.803,669.372,273.803,669.372C273.803,669.372,273.755,669.42,273.755,669.42C283.082,678.422,288.352,690.825,288.356,703.787C288.356,730.284,266.877,751.764,240.38,751.764C240.38,751.764,240.38,751.764,240.38,751.764M1024,511.88C1024,526.433,1017.395,539.307,1007.16,548.103C1007.16,548.103,818.036,737.211,818.036,737.211C818.036,737.211,818.004,737.163,818.004,737.163C808.994,746.488,796.586,751.757,783.62,751.764C757.123,751.764,735.644,730.284,735.644,703.787C735.644,690.29,741.273,678.136,750.245,669.42C750.245,669.42,750.197,669.372,750.197,669.372C750.197,669.372,907.928,511.64,907.928,511.64C907.928,511.64,749.685,353.397,749.685,353.397C749.685,353.397,749.733,353.349,749.733,353.349C741.013,344.426,736.129,332.448,736.123,319.973C736.123,293.476,757.603,271.996,784.1,271.996C797.086,271.996,808.84,277.21,817.492,285.622C817.492,285.622,817.54,285.558,817.54,285.558C817.54,285.558,1009.447,477.465,1009.447,477.465C1009.447,477.465,1009.399,477.529,1009.399,477.529C1018.735,486.517,1024.006,498.92,1024,511.88C1024,511.88,1024,511.88,1024,511.88M639.69,895.694C618.9,895.694,601.213,882.469,594.544,863.998C594.544,863.998,339.036,193.251,339.036,193.251C326.146,158.638,355.559,123.053,391.978,129.197C408.881,132.047,422.978,143.7,428.96,159.763C428.96,159.763,684.468,830.51,684.468,830.51C696.541,861.93,673.35,895.689,639.69,895.694C639.69,895.694,639.69,895.694,639.69,895.694" class="icon-code-view"/><glyph unicode="&#x0056;" d="M772.713,325.835C864.932,452.564,852.819,628.201,741.632,738.703C681.181,799.154,601.075,831.95,515.714,831.95C430.466,831.95,350.36,798.582,289.796,738.703C230.488,678.253,197.006,598.147,197.006,513.014C197.006,427.88,230.374,347.776,290.368,287.324C350.818,226.874,430.923,194.078,516.285,194.078C583.706,194.078,648.27,215.333,703.579,256.243C703.579,256.243,869.503,91.004,869.503,91.004C878.758,81.748,890.872,76.606,904.127,76.606C917.383,76.606,929.496,81.748,938.752,91.004C957.721,109.973,957.721,141.056,938.752,160.139C938.752,160.139,772.713,325.835,772.713,325.835C772.713,325.835,772.713,325.835,772.713,325.835M359.502,356.346C273.112,442.736,273.112,582.606,359.502,668.996C401.555,711.049,456.863,733.446,516.17,733.446C575.479,733.446,630.786,710.364,672.839,668.996C759.23,582.606,759.23,442.736,672.839,356.346C589.42,273.497,443.036,273.497,359.502,356.346C359.502,356.346,359.502,356.346,359.502,356.346M762.886,1024.386C762.886,1024.386,261.57,1024.386,261.57,1024.386C117.587,1024.386,0,907.484,0,762.929C0,762.929,0,261.956,0,261.956C0,117.972,117.015,0.5,261.57,0.5C261.57,0.5,533.54,0.5,533.54,0.5C560.622,0.5,582.563,22.325,582.563,49.408C582.563,76.491,560.622,98.318,533.54,98.318C533.54,98.318,261.57,98.318,261.57,98.318C171.637,98.318,98.503,171.452,98.503,261.271C98.503,261.271,98.503,762.358,98.503,762.358C98.503,852.176,171.637,925.311,261.57,925.311C261.57,925.311,762.886,925.311,762.886,925.311C852.819,925.311,925.953,852.176,925.953,762.358C925.953,762.358,925.953,495.759,925.953,495.759C925.953,468.676,947.894,446.85,974.976,446.85C1002.059,446.85,1024,468.676,1024,495.759C1024,495.759,1024,763.501,1024,763.501C1023.886,907.484,906.87,1024.386,762.886,1024.386C762.886,1024.386,762.886,1024.386,762.886,1024.386" class="icon-preview"/><glyph unicode="&#x0057;" d="M1008.246,644.837C1008.238,584.527,959.35,535.639,899.041,535.632C899.041,535.632,109.205,535.632,109.205,535.632C48.896,535.639,0.009,584.527,0,644.837C0,644.837,0,914.795,0,914.795C0.009,975.104,48.896,1023.992,109.205,1024C109.205,1024,899.057,1024,899.057,1024C959.366,1023.992,1008.253,975.104,1008.262,914.795C1008.262,914.795,1008.262,644.837,1008.262,644.837C1008.262,644.837,1008.246,644.837,1008.246,644.837M945.231,914.795C945.231,940.305,924.551,960.986,899.041,960.986C899.041,960.986,109.205,960.986,109.205,960.986C83.695,960.986,63.016,940.305,63.016,914.795C63.016,914.795,63.016,644.821,63.016,644.821C63.016,619.311,83.695,598.63,109.205,598.63C109.205,598.63,899.057,598.63,899.057,598.63C924.567,598.63,945.246,619.311,945.246,644.821C945.246,644.821,945.246,914.795,945.246,914.795C945.246,914.795,945.231,914.795,945.231,914.795M126.031,771.939C117.33,771.939,110.276,778.992,110.276,787.693C110.276,787.693,110.276,816.082,110.276,816.082C110.276,856.348,129.906,897.97,172.662,897.97C172.662,897.97,277.645,897.97,277.645,897.97C289.772,897.97,297.352,884.842,291.289,874.339C288.474,869.465,283.274,866.462,277.645,866.462C277.645,866.462,172.662,866.462,172.662,866.462C149.629,866.462,141.785,840.846,141.785,816.082C141.785,816.082,141.785,787.693,141.785,787.693C141.785,778.992,134.731,771.939,126.031,771.939C126.031,771.939,126.031,771.939,126.031,771.939M113.332,717.903C109.237,717.903,105.126,719.636,102.148,722.472C99.154,725.449,97.579,729.561,97.579,733.657C97.579,737.753,99.154,741.848,102.148,744.843C108.134,750.829,118.532,750.671,124.361,744.843C127.338,741.848,129.087,737.753,129.087,733.657C129.087,729.561,127.354,725.449,124.518,722.629C121.368,719.651,117.429,717.903,113.332,717.903C113.332,717.903,113.332,717.903,113.332,717.903M677.415,109.205C677.406,48.897,628.519,0.009,568.21,0C568.21,0,109.205,0,109.205,0C48.896,0.009,0.009,48.897,0,109.205C0,109.205,0,379.163,0,379.163C0.009,439.473,48.896,488.361,109.205,488.37C109.205,488.37,568.225,488.37,568.225,488.37C628.535,488.361,677.423,439.473,677.432,379.163C677.432,379.163,677.432,109.205,677.432,109.205C677.432,109.205,677.415,109.205,677.415,109.205M614.4,379.163C614.4,404.673,593.72,425.354,568.21,425.354C568.21,425.354,109.205,425.354,109.205,425.354C83.695,425.354,63.016,404.673,63.016,379.163C63.016,379.163,63.016,109.19,63.016,109.19C63.016,83.68,83.695,63,109.205,63C109.205,63,568.225,63,568.225,63C593.736,63,614.416,83.68,614.416,109.19C614.416,109.19,614.416,379.163,614.416,379.163C614.416,379.163,614.4,379.163,614.4,379.163M1024,109.205C1023.991,48.897,975.104,0.009,914.795,0C914.795,0,833.867,0,833.867,0C773.557,0.009,724.67,48.897,724.662,109.205C724.662,109.205,724.662,379.163,724.662,379.163C724.67,439.473,773.557,488.361,833.867,488.37C833.867,488.37,914.795,488.37,914.795,488.37C975.104,488.361,1023.991,439.473,1024,379.163C1024,379.163,1024,109.205,1024,109.205C1024,109.205,1024,109.205,1024,109.205M960.984,379.163C960.984,404.673,940.305,425.354,914.795,425.354C914.795,425.354,833.867,425.354,833.867,425.354C808.357,425.354,787.677,404.673,787.677,379.163C787.677,379.163,787.677,109.19,787.677,109.19C787.677,83.68,808.357,63,833.867,63C833.867,63,914.795,63,914.795,63C940.305,63,960.984,83.68,960.984,109.19C960.984,109.19,960.984,379.163,960.984,379.163C960.984,379.163,960.984,379.163,960.984,379.163" class="icon-showBlocks"/><glyph unicode="&#x0058;" d="M419.444,481.148C419.444,481.148,87.259,148.963,87.259,148.963C87.259,148.963,87.259,331.571,87.259,331.571C87.259,331.571,0,331.571,0,331.571C0,331.571,0,0,0,0C0,0,331.571,0,331.571,0C331.571,0,331.571,87.259,331.571,87.259C331.571,87.259,148.958,87.259,148.958,87.259C148.958,87.259,481.145,419.447,481.145,419.447C481.145,419.447,419.444,481.148,419.444,481.148M692.429,1024C692.429,1024,692.429,936.741,692.429,936.741C692.429,936.741,875.037,936.741,875.037,936.741C875.037,936.741,542.849,604.55,542.849,604.55C542.849,604.55,604.55,542.852,604.55,542.852C604.55,542.852,936.741,875.04,936.741,875.04C936.741,875.04,936.741,692.429,936.741,692.429C936.741,692.429,1024,692.429,1024,692.429C1024,692.429,1024,1024,1024,1024C1024,1024,692.429,1024,692.429,1024" class="icon-expand"/><glyph unicode="&#x0059;" d="M1024,960.66C1024,960.66,960.66,1024,960.66,1024C960.66,1024,619.65,682.987,619.65,682.987C619.65,682.987,619.65,870.45,619.65,870.45C619.65,870.45,530.074,870.45,530.074,870.45C530.074,870.45,530.074,530.074,530.074,530.074C530.074,530.074,870.45,530.074,870.45,530.074C870.45,530.074,870.45,619.65,870.45,619.65C870.45,619.65,682.99,619.65,682.99,619.65C682.99,619.65,1024,960.66,1024,960.66M153.547,403.394C153.547,403.394,340.057,403.394,340.057,403.394C340.057,403.394,0,63.34,0,63.34C0,63.34,63.34,0,63.34,0C63.34,0,404.347,341.007,404.347,341.007C404.347,341.007,404.347,152.594,404.347,152.594C404.347,152.594,493.923,152.594,493.923,152.594C493.923,152.594,493.923,492.971,493.923,492.971C493.923,492.971,153.547,492.971,153.547,492.971C153.547,492.971,153.547,403.394,153.547,403.394" class="icon-compress"/><glyph unicode="&#x005a;" d="M284.444,701.444C299.221,701.444,314.028,707.694,324.833,718.499C335.055,728.748,341.333,743.554,341.333,758.333C341.333,773.695,335.055,788.471,324.833,798.722C303.222,819.777,265.082,819.777,244.055,798.722C233.805,788.471,227.555,773.693,227.555,758.333C227.555,743.555,233.805,728.748,244.055,718.499C254.861,707.693,269.639,701.444,284.444,701.444C284.444,701.444,284.444,701.444,284.444,701.444M910.223,1024C910.223,1024,113.778,1024,113.778,1024C50.938,1024,0,973.062,0,910.222C0,910.222,0,113.777,0,113.777C0,50.937,50.938,0,113.778,0C113.778,0,910.223,0,910.223,0C973.057,0,1024,50.937,1024,113.777C1024,113.777,1024,910.221,1024,910.221C1024,973.062,973.056,1024,910.223,1024C910.223,1024,910.223,1024,910.223,1024M910.223,910.221C910.223,910.221,910.223,472.804,910.223,472.804C910.223,472.804,764.445,712.249,764.445,712.249C754.806,728.111,738.029,738.249,719.501,739.444C701.139,740.776,683.056,732.721,671.445,718.221C671.445,718.221,433.86,421.526,433.86,421.526C433.86,421.526,337.638,499.332,337.638,499.332C317.499,515.666,288.944,516.249,268.027,500.86C268.027,500.86,113.778,386.773,113.778,386.773C113.778,386.773,113.778,910.221,113.778,910.221C113.778,910.221,910.223,910.221,910.223,910.221C910.223,910.221,910.223,910.221,910.223,910.221M113.778,113.776C113.778,113.776,113.778,245.229,113.778,245.229C113.778,245.229,300.306,383.194,300.306,383.194C300.306,383.194,406.75,297.111,406.75,297.111C418.528,287.555,433.61,283.166,448.638,284.778C463.694,286.389,477.47,293.973,486.944,305.778C486.944,305.778,709.499,583.723,709.499,583.723C709.499,583.723,909.722,254.862,909.722,254.862C909.864,254.629,910.076,254.47,910.222,254.24C910.222,254.24,910.222,113.778,910.222,113.778C910.222,113.778,113.778,113.778,113.778,113.778C113.778,113.778,113.778,113.776,113.778,113.776" class="icon-image"/><glyph unicode="&#x0061;" d="M561.673,381.58C555.966,383.622,549.569,382.198,545.296,377.884C545.296,377.884,343.458,176.067,343.458,176.067C321.071,153.669,291.26,141.366,259.512,141.366C227.764,141.366,197.964,153.69,175.588,176.067C129.306,222.369,129.306,297.676,175.588,343.958C175.588,343.958,377.394,545.744,377.394,545.744C381.688,550.037,383.122,556.424,381.08,562.131C379.038,567.848,373.876,571.88,367.845,572.466C367.845,572.466,226.937,586.466,226.937,586.466C222.215,587.01,217.608,585.282,214.278,581.942C214.278,581.942,75.925,443.6,75.925,443.6C26.963,394.648,0,329.445,0,260.012C0,190.579,26.963,125.387,75.925,76.425C124.877,27.463,190.079,0.5,259.512,0.5C328.945,0.5,394.148,27.463,443.11,76.425C443.11,76.425,581.463,214.767,581.463,214.767C584.793,218.087,586.458,222.757,585.987,227.427C585.987,227.427,572.008,368.345,572.008,368.345C571.4,374.376,567.401,379.528,561.673,381.58C561.673,381.58,561.673,381.58,561.673,381.58M948.083,948.572C899.121,997.535,833.918,1024.497,764.485,1024.497C695.052,1024.497,629.849,997.535,580.898,948.572C580.898,948.572,442.534,810.22,442.534,810.22C439.205,806.9,437.54,802.241,438.011,797.56C438.011,797.56,452.011,656.642,452.011,656.642C452.607,650.6,456.639,645.449,462.356,643.407C468.073,641.354,474.45,642.789,478.743,647.092C478.743,647.092,680.539,848.92,680.539,848.92C702.926,871.307,732.737,883.632,764.485,883.632C796.233,883.632,826.044,871.297,848.441,848.92C894.723,802.639,894.723,727.331,848.441,681.039C848.441,681.039,646.624,479.232,646.624,479.232C642.331,474.939,640.896,468.542,642.938,462.835C644.98,457.128,650.142,453.097,656.173,452.511C656.173,452.511,797.071,438.511,797.071,438.511C797.594,438.438,798.107,438.417,798.61,438.417C802.756,438.417,806.756,440.05,809.73,443.013C809.73,443.013,948.083,581.377,948.083,581.377C1049.306,682.61,1049.306,847.339,948.083,948.572C948.083,948.572,948.083,948.572,948.083,948.572M92.574,629.784C92.668,629.784,92.762,629.784,92.846,629.784C92.846,629.784,262.413,632.737,262.413,632.737C270.172,632.873,276.674,638.653,277.7,646.359C278.727,654.056,273.983,661.354,266.528,663.532C266.528,663.532,103.715,711.007,103.715,711.007C99.317,712.295,94.574,711.594,90.752,709.081C86.919,706.588,84.365,702.547,83.757,698.002C83.757,698.002,77.003,647.574,77.003,647.574C76.396,643.03,77.799,638.464,80.846,635.051C83.82,631.7,88.092,629.784,92.574,629.784C92.574,629.784,92.574,629.784,92.574,629.784M360.997,757.969C362.965,751.205,369.175,746.661,376.065,746.661C376.756,746.661,377.457,746.703,378.159,746.807C385.855,747.834,391.645,754.336,391.782,762.095C391.782,762.095,394.724,931.662,394.724,931.662C394.797,936.248,392.881,940.625,389.457,943.662C386.033,946.698,381.468,948.112,376.923,947.483C376.923,947.483,326.495,940.698,326.495,940.698C321.961,940.091,317.919,937.526,315.427,933.693C312.935,929.861,312.234,925.128,313.511,920.741C313.511,920.741,360.997,757.969,360.997,757.969C360.997,757.969,360.997,757.969,360.997,757.969M931.162,395.213C931.162,395.213,761.606,392.271,761.606,392.271C753.836,392.124,747.344,386.365,746.307,378.648C745.271,370.952,750.014,363.654,757.469,361.466C757.469,361.466,920.282,313.98,920.282,313.98C921.738,313.571,923.204,313.351,924.68,313.351C927.706,313.351,930.67,314.221,933.246,315.896C937.078,318.388,939.622,322.43,940.24,326.985C940.24,326.985,947.004,377.402,947.004,377.402C947.612,381.957,946.209,386.512,943.162,389.926C940.114,393.381,935.539,395.412,931.162,395.213C931.162,395.213,931.162,395.213,931.162,395.213M663,267.007C660.833,274.462,653.598,279.3,645.839,278.169C638.153,277.122,632.362,270.63,632.216,262.871C632.216,262.871,629.273,93.336,629.273,93.336C629.2,88.749,631.116,84.372,634.53,81.336C637.42,78.76,641.158,77.357,644.98,77.357C645.671,77.357,646.373,77.409,647.074,77.514C647.074,77.514,697.492,84.278,697.492,84.278C702.036,84.885,706.078,87.44,708.581,91.273C711.073,95.116,711.774,99.848,710.507,104.225C710.507,104.225,663,267.007,663,267.007C663,267.007,663,267.007,663,267.007" class="icon-link"/><glyph unicode="&#x0062;" d="M150.112,149.76C53.248,246.496,0,375.008,0,512C0,794.24,229.632,1024,512,1024C512,1024,576,960,576,960C576,960,512,896,512,896C300.256,896,128,723.744,128,512C128,409.248,168,312.736,240.64,240.256C240.64,240.256,162.016,230.016,162.016,230.016C162.016,230.016,150.112,149.76,150.112,149.76C150.112,149.76,150.112,149.76,150.112,149.76M512,0C512,0,448,63.744,448,63.744C448,63.744,512,128,512,128C723.744,128,896,300.256,896,512C896,614.496,856,711.008,783.264,783.616C783.264,783.616,862.016,793.984,862.016,793.984C862.016,793.984,873.76,874.112,873.76,874.112C970.624,777.376,1024,648.736,1024,512C1024,229.76,794.24,0,512,0C512,0,512,0,512,0C512,0,512,0,512,0" class="icon-auto-size"/><glyph unicode="&#x0063;" d="M939.337,213.333C939.337,213.333,811.166,213.333,811.166,213.333C811.166,213.333,811.166,298.666,811.166,298.666C811.166,298.666,939.337,298.666,939.337,298.666C939.337,298.666,939.166,725.333,939.166,725.333C939.166,748.842,920.052,768,896.5,768C896.5,768,128.5,768,128.5,768C104.948,768,85.833,748.842,85.833,725.333C85.833,725.333,85.833,298.496,85.833,298.496C85.833,298.496,213.833,298.666,213.833,298.666C213.833,298.666,213.833,213.333,213.833,213.333C213.833,213.333,85.662,213.333,85.662,213.333C38.729,213.333,0.5,251.562,0.5,298.496C0.5,298.496,0.5,725.333,0.5,725.333C0.5,795.904,57.929,853.333,128.5,853.333C128.5,853.333,896.5,853.333,896.5,853.333C967.07,853.333,1024.5,795.904,1024.5,725.333C1024.5,725.333,1024.5,298.496,1024.5,298.496C1024.5,251.562,986.313,213.333,939.337,213.333M853.842,768C853.842,768,768.508,768,768.508,768C768.508,768,768.508,938.581,768.508,938.581C768.508,938.581,256.85,938.666,256.85,938.666C256.85,938.666,256.508,768,256.508,768C256.508,768,171.175,768,171.175,768C171.175,768,171.175,938.624,171.175,938.624C171.175,985.728,209.575,1024,256.85,1024C256.85,1024,768.124,1024,768.124,1024C815.399,1024,853.842,985.685,853.842,938.581C853.842,938.581,853.842,768,853.842,768C853.842,768,853.842,768,853.842,768M256.508,426.666C256.508,426.666,256.508,85.333,256.508,85.333C256.508,85.333,768.38,85.333,768.38,85.333C768.38,85.333,768.508,426.666,768.508,426.666C768.508,426.666,256.508,426.666,256.508,426.666C256.508,426.666,256.508,426.666,256.508,426.666M768.508,85.333C768.508,85.333,768.508,42.666,768.508,42.666C768.508,42.666,768.508,85.333,768.508,85.333C768.508,85.333,768.508,85.333,768.508,85.333M811.132,0C811.132,0,213.927,0,213.927,0C190.29,0,171.175,19.114,171.175,42.752C171.175,42.752,171.175,469.333,171.175,469.333C171.175,492.928,190.247,512,213.842,512C213.842,512,811.132,512,811.132,512C834.722,512.004,853.846,492.88,853.842,469.29C853.842,469.29,853.842,42.709,853.842,42.709C853.846,19.119,834.722,-0.005,811.132,0C811.132,0,811.132,0,811.132,0M811.175,634.666C811.175,611.114,792.06,592,768.508,592C744.956,592,725.842,611.114,725.842,634.666C725.842,658.218,744.956,677.333,768.508,677.333C792.06,677.333,811.175,658.218,811.175,634.666" class="icon-print"/><glyph unicode="&#x0064;" d="M1001.4,277.73C1001.4,277.73,957.129,303.298,957.129,303.298C960.063,319.566,961.863,336.254,961.863,353.373C961.863,370.48,960.063,387.164,957.129,403.4C957.129,403.4,1001.4,428.971,1001.4,428.971C1021.041,440.304,1027.732,465.396,1016.4,485.031C1016.4,485.031,964.461,575.017,964.461,575.017C953.125,594.657,928.052,601.372,908.415,590.055C908.415,590.055,864.171,564.5,864.171,564.5C838.763,586.12,809.417,603.089,777.419,614.527C777.419,614.527,777.419,665.72,777.419,665.72C777.419,667.353,776.649,668.754,776.48,670.356C771.142,665.822,765.513,661.653,759.344,658.103C759.344,658.103,749.347,652.334,749.347,652.334C749.682,646.12,749.811,639.95,749.811,633.781C749.811,627.598,749.682,621.392,749.347,615.16C749.347,615.16,759.344,609.376,759.344,609.376C785.281,594.422,804.591,569.269,812.285,540.411C820.156,511.072,816.118,480.436,800.949,454.194C800.949,454.194,743.543,354.822,743.543,354.822C723.333,319.801,685.597,298.045,645.151,298.045C625.314,298.045,605.679,303.292,588.441,313.25C588.441,313.25,578.173,319.152,578.173,319.152C567.84,312.482,557.164,306.334,546.164,300.715C546.164,300.715,546.164,288.882,546.164,288.882C546.164,226.246,495.225,175.288,432.574,175.288C432.574,175.288,379.129,175.288,379.129,175.288C379.129,175.288,404.333,131.65,404.333,131.65C415.669,112.025,440.742,105.307,460.375,116.626C460.375,116.626,504.694,142.213,504.694,142.213C530.064,120.61,559.37,103.669,591.407,92.271C591.407,92.271,591.407,41.029,591.407,41.029C591.407,18.372,609.778,0,632.45,0C632.45,0,736.338,0,736.338,0C759.007,0,777.416,18.372,777.416,41.029C777.416,41.029,777.416,92.271,777.416,92.271C809.415,103.674,838.721,120.626,864.088,142.23C864.088,142.23,908.406,116.66,908.406,116.66C928.046,105.324,953.112,112.038,964.452,131.679C964.452,131.679,1016.39,221.665,1016.39,221.665C1027.734,241.304,1021.039,266.394,1001.4,277.73C1001.4,277.73,1001.4,277.73,1001.4,277.73M375.24,756.978C307.325,756.978,252.043,701.714,252.043,633.785C252.043,565.854,307.323,510.574,375.24,510.574C443.156,510.574,498.428,565.854,498.428,633.785C498.426,701.714,443.156,756.978,375.24,756.978C375.24,756.978,375.24,756.978,375.24,756.978M477.894,288.886C477.894,288.886,477.894,345.465,477.894,345.465C513.235,358.066,545.646,376.804,573.653,400.624C573.653,400.624,622.556,372.401,622.556,372.401C629.694,368.282,637.463,366.332,645.157,366.332C660.803,366.332,676.032,374.452,684.433,388.991C684.433,388.991,741.813,488.342,741.813,488.342C747.811,498.741,749.482,511.111,746.344,522.736C743.243,534.336,735.649,544.24,725.244,550.242C725.244,550.242,676.332,578.495,676.332,578.495C679.597,596.482,681.539,614.87,681.539,633.79C681.539,652.694,679.597,671.078,676.332,689.032C676.332,689.032,725.202,717.254,725.202,717.254C735.651,723.274,743.212,733.159,746.34,744.778C749.478,756.382,747.807,768.748,741.809,779.154C741.809,779.154,684.429,878.538,684.429,878.538C678.434,888.941,668.528,896.544,656.923,899.645C653.065,900.675,649.126,901.195,645.19,901.195C637.318,901.195,629.484,899.124,622.517,895.11C622.517,895.11,573.709,866.903,573.709,866.903C545.637,890.775,513.262,909.528,477.885,922.147C477.885,922.147,477.885,978.691,477.885,978.691C477.889,1003.711,457.615,1024,432.58,1024C432.58,1024,317.82,1024,317.82,1024C292.785,1024,272.517,1003.711,272.517,978.688C272.517,978.688,272.517,922.145,272.517,922.145C237.139,909.526,204.769,890.792,176.762,866.901C176.762,866.901,127.821,895.141,127.821,895.141C120.885,899.141,113.079,901.207,105.216,901.207C101.279,901.207,97.306,900.691,93.473,899.657C81.841,896.556,71.935,888.954,65.94,878.551C65.94,878.551,8.595,779.166,8.595,779.166C-3.947,757.494,3.526,729.788,25.157,717.27C25.157,717.27,74.071,689.03,74.071,689.03C70.803,671.076,68.872,652.692,68.872,633.787C68.872,614.868,70.803,596.428,74.071,578.474C74.071,578.474,25.157,550.221,25.157,550.221C3.491,537.701,-3.945,509.996,8.595,488.34C8.595,488.34,65.938,388.954,65.938,388.954C74.339,374.434,89.573,366.297,105.216,366.297C112.912,366.297,120.683,368.251,127.821,372.367C127.821,372.367,176.762,400.606,176.762,400.606C204.796,376.781,237.178,358.062,272.517,345.459C272.517,345.459,272.517,288.878,272.517,288.878C272.517,263.859,292.783,243.571,317.82,243.571C317.82,243.571,432.58,243.571,432.58,243.571C457.618,243.573,477.894,263.861,477.894,288.886C477.894,288.886,477.894,288.886,477.894,288.886M183.767,633.785C183.767,739.357,269.656,825.254,375.24,825.254C480.826,825.254,566.714,739.357,566.714,633.785C566.714,528.199,480.826,442.296,375.24,442.296C269.656,442.296,183.767,528.199,183.767,633.785C183.767,633.785,183.767,633.785,183.767,633.785" class="icon-modify"/><glyph unicode="&#x0065;" d="M901.133,295.1C901.133,295.1,204.867,295.1,204.867,295.1C204.867,295.1,204.867,425.499,204.867,425.499C204.867,425.499,0,251.766,0,251.766C0,251.766,204.867,34.5,204.867,34.5C204.867,34.5,204.867,164.9,204.867,164.9C204.867,164.9,778.266,164.9,901.199,164.9C1024,164.9,1024,295.1,1024,295.1C1024,295.1,1024,599.233,1024,599.233C1024,599.233,901.199,469.033,901.199,469.033C901.199,469.033,901.199,295.1,901.199,295.1C901.199,295.1,901.133,295.1,901.133,295.1C901.133,295.1,901.133,295.1,901.133,295.1M122.867,729.633C122.867,729.633,819.133,729.633,819.133,729.633C819.133,729.633,819.133,599.233,819.133,599.233C819.133,599.233,1024,773.073,1024,773.073C1024,773.073,819.133,990.233,819.133,990.233C819.133,990.233,819.133,859.94,819.133,859.94C819.133,859.94,245.734,859.94,122.867,859.94C0,859.94,0,729.633,0,729.633C0,729.633,0,425.499,0,425.499C0,425.499,122.867,555.699,122.867,555.699C122.867,555.699,122.867,729.633,122.867,729.633C122.867,729.633,122.867,729.633,122.867,729.633" class="icon-revert"/><glyph unicode="&#x0066;" d="M935.88,779.267C935.88,779.267,512.049,355.335,512.049,355.335C512.049,355.335,88.218,779.319,88.218,779.319C68.011,799.525,35.324,799.525,15.117,779.319C-5.039,759.112,-5.039,726.373,15.117,706.166C15.117,706.166,475.475,245.655,475.475,245.655C475.475,245.655,475.475,245.655,475.475,245.655C475.475,245.655,475.475,245.655,475.475,245.655C495.631,225.448,528.369,225.448,548.525,245.655C548.525,245.655,1008.883,706.162,1008.883,706.162C1029.039,726.369,1029.039,759.158,1008.883,779.365C988.778,799.474,956.036,799.474,935.88,779.267C935.88,779.267,935.88,779.267,935.88,779.267" class="icon-arrow-down"/><glyph unicode="&#x0067;" d="M1024,600.767C1024,600.767,768,495.142,768,495.142C768,495.142,768,575.423,768,575.423C768,575.423,722.074,575.423,665.599,575.423C665.599,575.423,102.4,575.423,102.4,575.423C45.926,575.423,0,575.423,0,575.423C0,575.423,0,165.823,0,165.823C0,109.349,0,63.422,0,63.422C0,63.422,768,63.422,768,63.422C768,63.422,768,96.754,768,141.401C768,141.401,1024,39,1024,39C1024,39,1024,600.767,1024,600.767C1024,600.767,1024,600.767,1024,600.767M665.599,165.823C665.599,165.823,102.4,165.823,102.4,165.823C102.4,165.823,102.4,473.023,102.4,473.023C102.4,473.023,665.599,473.023,665.599,473.023C665.599,473.023,665.599,452.799,665.599,452.799C665.599,452.799,665.599,452.799,665.599,452.799C665.599,452.799,665.599,165.823,665.599,165.823C665.599,165.823,665.599,165.823,665.599,165.823C665.599,165.823,665.599,165.823,665.599,165.823C665.599,165.823,665.599,165.823,665.599,165.823M921.6,190.246C921.6,190.246,768,251.686,768,251.686C768,251.686,768,384.293,768,384.293C768,384.293,921.6,447.679,921.6,447.679C921.6,447.679,921.6,190.246,921.6,190.246C921.6,190.246,921.6,190.246,921.6,190.246M230.4,626.623C329.215,626.623,409.6,707.007,409.6,805.823C409.6,904.64,329.215,985.023,230.4,985.023C131.584,985.023,51.199,904.64,51.199,805.823C51.199,707.007,131.584,626.623,230.4,626.623C230.4,626.623,230.4,626.623,230.4,626.623M230.4,882.623C272.742,882.623,307.2,848.165,307.2,805.823C307.2,763.481,272.742,729.023,230.4,729.023C188.057,729.023,153.6,763.481,153.6,805.823C153.6,848.165,188.057,882.623,230.4,882.623C230.4,882.623,230.4,882.623,230.4,882.623M614.4,626.623C699.084,626.623,768,695.538,768,780.223C768,864.908,699.084,933.824,614.4,933.824C529.715,933.824,460.8,864.908,460.8,780.223C460.8,695.538,529.715,626.623,614.4,626.623C614.4,626.623,614.4,626.623,614.4,626.623M614.4,831.423C642.611,831.423,665.599,808.434,665.599,780.223C665.599,752.011,642.611,729.023,614.4,729.023C586.188,729.023,563.2,752.011,563.2,780.223C563.2,808.434,586.188,831.423,614.4,831.423C614.4,831.423,614.4,831.423,614.4,831.423" class="icon-video"/><glyph unicode="&#x0068;" d="M633.701,512.497C633.701,512.497,998.795,877.591,998.795,877.591C1032.402,911.198,1032.402,965.686,998.795,999.289C965.187,1032.896,910.704,1032.896,877.097,999.289C877.097,999.289,511.998,634.19,511.998,634.19C511.998,634.19,146.9,999.293,146.9,999.293C113.292,1032.901,58.809,1032.901,25.202,999.293C-8.401,965.686,-8.401,911.198,25.202,877.595C25.202,877.595,390.3,512.502,390.3,512.502C390.3,512.502,25.202,147.403,25.202,147.403C-8.401,113.796,-8.401,59.308,25.202,25.705C58.809,-7.902,113.292,-7.902,146.9,25.705C146.9,25.705,511.998,390.804,511.998,390.804C511.998,390.804,877.097,25.705,877.097,25.705C910.699,-7.902,965.187,-7.902,998.795,25.705C1032.402,59.313,1032.402,113.796,998.795,147.403C998.795,147.403,633.701,512.497,633.701,512.497C633.701,512.497,633.701,512.497,633.701,512.497" class="icon-cancel"/><glyph unicode="&#x0069;" d="M512,0C229.248,0,0,229.216,0,512C0,794.752,229.248,1024,512,1024C794.752,1024,1024,794.752,1024,512C1024,229.216,794.752,0,512,0C512,0,512,0,512,0M512,896C299.936,896,128,724.064,128,512C128,299.936,299.936,128,512,128C724.064,128,896,299.936,896,512C896,724.064,724.064,896,512,896C512,896,512,896,512,896M448,384C448,384,576,384,576,384C576,384,576,256,576,256C576,256,448,256,448,256C448,256,448,384,448,384C448,384,448,384,448,384M448,768C448,768,576,768,576,768C576,768,576,448,576,448C576,448,448,448,448,448C448,448,448,768,448,768C448,768,448,768,448,768" class="icon-warning"/><glyph unicode="&#x006a;" d="M113.449,15.836C104.4,26.017,102.138,154.969,103.269,470.562C103.269,470.562,106.662,910.583,106.662,910.583C106.662,910.583,279.729,913.976,279.729,913.976C381.534,915.107,451.666,912.845,451.666,906.058C451.666,863.074,440.354,859.68,297.828,859.68C297.828,859.68,157.564,859.68,157.564,859.68C157.564,859.68,157.564,458.119,157.564,458.119C157.564,458.119,157.564,56.558,157.564,56.558C157.564,56.558,355.517,56.558,355.517,56.558C355.517,56.558,553.47,56.558,553.47,56.558C553.47,56.558,553.47,312.2,553.47,312.2C553.47,540.694,555.732,566.71,571.568,561.055C581.749,557.661,594.192,554.268,599.847,554.268C605.503,554.268,610.028,475.087,610.028,373.282C610.028,373.282,610.028,192.297,610.028,192.297C610.028,192.297,719.75,192.297,719.75,192.297C719.75,192.297,829.472,192.297,829.472,192.297C829.472,192.297,793.275,229.625,793.275,229.625C772.915,249.986,757.078,276.003,757.078,286.183C757.078,323.511,797.8,305.413,863.407,238.674C918.834,183.248,926.752,168.543,917.703,150.444C898.473,115.378,791.013,20.361,776.308,26.017C750.291,33.935,754.816,70.132,786.488,102.935C786.488,102.935,818.161,135.739,818.161,135.739C818.161,135.739,714.094,135.739,714.094,135.739C714.094,135.739,610.028,135.739,610.028,135.739C610.028,135.739,610.028,74.656,610.028,74.656C610.028,29.41,605.503,12.443,591.929,6.787C581.749,3.393,473.158,0,349.861,0C174.532,0,123.63,3.393,113.449,15.836C113.449,15.836,113.449,15.836,113.449,15.836M610.028,580.284C494.65,617.612,431.305,771.45,484.469,887.959C574.962,1088.174,867.932,1061.027,915.441,848.369C955.031,667.383,791.013,522.595,610.028,580.284C610.028,580.284,610.028,580.284,610.028,580.284M795.538,660.597C849.833,701.318,878.112,778.237,860.014,837.057C843.046,893.615,791.013,945.648,734.455,962.616C651.881,987.501,546.683,923.025,525.191,833.664C507.092,761.27,553.47,670.777,626.995,637.973C675.635,615.35,749.16,625.531,795.538,660.597C795.538,660.597,795.538,660.597,795.538,660.597M674.504,662.859C669.979,667.383,666.586,693.4,666.586,719.417C666.586,719.417,666.586,768.057,666.586,768.057C666.586,768.057,613.421,771.45,613.421,771.45C568.175,774.844,559.126,778.237,559.126,797.467C559.126,816.696,568.175,820.09,613.421,823.483C613.421,823.483,666.586,826.877,666.586,826.877C666.586,826.877,666.586,876.648,666.586,876.648C666.586,906.058,672.241,927.55,681.291,930.943C710.701,941.124,723.144,924.156,723.144,875.517C723.144,875.517,723.144,825.746,723.144,825.746C723.144,825.746,772.915,825.746,772.915,825.746C821.554,825.746,838.522,813.303,828.341,782.762C824.948,774.844,803.456,769.188,774.046,769.188C774.046,769.188,724.275,769.188,724.275,769.188C724.275,769.188,720.881,716.023,720.881,716.023C718.619,677.564,711.832,660.597,700.52,658.334C690.34,657.203,679.028,658.334,674.504,662.859C674.504,662.859,674.504,662.859,674.504,662.859" class="icon-insert-column-right"/><glyph unicode="&#x006b;" d="M125.035,60.703C67.418,118.32,59.187,144.042,96.227,144.042C105.487,144.042,126.064,131.695,141.497,116.262C141.497,116.262,170.305,88.483,170.305,88.483C170.305,88.483,170.305,183.139,170.305,183.139C170.305,183.139,170.305,277.795,170.305,277.795C170.305,277.795,120.92,277.795,120.92,277.795C94.169,277.795,66.39,282.939,59.187,290.141C45.812,303.517,40.668,692.43,53.014,724.324C58.159,738.729,90.054,740.786,305.087,740.786C448.1,740.786,550.987,736.671,550.987,731.527C550.987,726.382,554.074,715.065,557.161,705.805C562.305,691.401,538.641,689.343,330.809,689.343C330.809,689.343,98.285,689.343,98.285,689.343C98.285,689.343,98.285,509.291,98.285,509.291C98.285,509.291,98.285,329.238,98.285,329.238C98.285,329.238,463.533,329.238,463.533,329.238C463.533,329.238,828.782,329.238,828.782,329.238C828.782,329.238,828.782,456.818,828.782,456.818C828.782,586.456,831.869,596.745,870.966,596.745C877.139,596.745,879.197,532.955,878.168,439.327C878.168,439.327,875.081,282.939,875.081,282.939C875.081,282.939,548.93,279.853,548.93,279.853C548.93,279.853,221.749,277.795,221.749,277.795C221.749,277.795,221.749,177.995,221.749,177.995C221.749,177.995,221.749,78.194,221.749,78.194C221.749,78.194,255.702,111.118,255.702,111.118C292.741,147.128,324.636,154.33,324.636,125.522C324.636,103.916,222.778,0,200.143,0C191.912,0,157.959,27.779,125.035,60.703C125.035,60.703,125.035,60.703,125.035,60.703M695.029,620.409C590.084,654.361,532.468,794.288,580.825,900.261C663.134,1082.371,929.611,1057.678,972.824,864.251C1008.834,699.632,859.648,567.936,695.029,620.409C695.029,620.409,695.029,620.409,695.029,620.409M863.764,693.458C913.15,730.498,938.871,800.461,922.409,853.962C906.976,905.406,859.648,952.734,808.205,968.167C733.097,990.802,637.412,932.156,617.864,850.875C601.402,785.028,643.586,702.718,710.462,672.881C754.704,652.304,821.58,661.563,863.764,693.458C863.764,693.458,863.764,693.458,863.764,693.458M753.675,695.516C749.559,699.632,746.473,723.296,746.473,746.96C746.473,746.96,746.473,791.201,746.473,791.201C746.473,791.201,698.116,794.288,698.116,794.288C656.961,797.374,648.73,800.461,648.73,817.952C648.73,835.442,656.961,838.529,698.116,841.616C698.116,841.616,746.473,844.702,746.473,844.702C746.473,844.702,746.473,889.973,746.473,889.973C746.473,916.723,751.617,936.272,759.848,939.358C786.599,948.618,797.916,933.185,797.916,888.944C797.916,888.944,797.916,843.673,797.916,843.673C797.916,843.673,843.186,843.673,843.186,843.673C887.428,843.673,902.861,832.356,893.601,804.576C890.514,797.374,870.966,792.23,844.215,792.23C844.215,792.23,798.945,792.23,798.945,792.23C798.945,792.23,795.858,743.873,795.858,743.873C793.801,708.891,787.627,693.458,777.339,691.401C768.079,690.372,757.79,691.401,753.675,695.516C753.675,695.516,753.675,695.516,753.675,695.516" class="icon-insert-row-below"/><glyph unicode="&#x006c;" d="M14.485,114.971C-0.206,129.662,-5.857,556.854,7.705,591.889C13.355,605.45,30.307,609.971,75.513,609.971C75.513,609.971,136.54,609.971,136.54,609.971C136.54,609.971,136.54,713.944,136.54,713.944C136.54,713.944,136.54,817.916,136.54,817.916C136.54,817.916,103.766,786.272,103.766,786.272C70.992,754.629,34.828,750.108,26.917,776.101C21.266,790.793,116.198,898.156,151.232,917.368C169.314,926.409,184.006,918.498,239.383,863.122C306.061,797.574,324.143,756.889,286.849,756.889C276.677,756.889,250.684,772.711,230.342,793.053C230.342,793.053,193.047,829.218,193.047,829.218C193.047,829.218,193.047,719.594,193.047,719.594C193.047,719.594,193.047,609.971,193.047,609.971C193.047,609.971,373.869,609.971,373.869,609.971C475.582,609.971,554.691,605.45,554.691,599.8C554.691,594.149,558.082,581.717,561.472,571.546C567.123,555.724,541.13,553.464,312.842,553.464C312.842,553.464,57.431,553.464,57.431,553.464C57.431,553.464,57.431,355.69,57.431,355.69C57.431,355.69,57.431,157.916,57.431,157.916C57.431,157.916,458.63,157.916,458.63,157.916C458.63,157.916,859.828,157.916,859.828,157.916C859.828,157.916,859.828,298.053,859.828,298.053C859.828,440.45,863.219,451.752,906.164,451.752C912.945,451.752,915.205,381.683,914.075,278.841C914.075,278.841,910.685,107.06,910.685,107.06C910.685,107.06,469.931,103.669,469.931,103.669C135.41,101.409,24.657,104.799,14.485,114.971C14.485,114.971,14.485,114.971,14.485,114.971M712.91,477.745C597.636,515.039,534.349,668.738,587.465,785.142C677.876,985.177,970.582,958.053,1018.048,745.587C1057.602,564.765,893.732,420.108,712.91,477.745C712.91,477.745,712.91,477.745,712.91,477.745M898.253,557.985C952.5,598.67,980.753,675.519,962.671,734.286C945.719,790.793,893.732,842.779,837.226,859.731C754.726,884.594,649.623,820.177,628.15,730.896C610.068,658.567,656.404,568.156,729.863,535.382C778.458,512.779,851.917,522.95,898.253,557.985C898.253,557.985,898.253,557.985,898.253,557.985M777.328,560.245C772.808,564.765,769.417,590.759,769.417,616.752C769.417,616.752,769.417,665.348,769.417,665.348C769.417,665.348,716.301,668.738,716.301,668.738C671.095,672.129,662.054,675.519,662.054,694.731C662.054,713.944,671.095,717.334,716.301,720.724C716.301,720.724,769.417,724.115,769.417,724.115C769.417,724.115,769.417,773.841,769.417,773.841C769.417,803.224,775.068,824.697,784.109,828.087C813.493,838.259,825.924,821.307,825.924,772.711C825.924,772.711,825.924,722.985,825.924,722.985C825.924,722.985,875.65,722.985,875.65,722.985C924.246,722.985,941.198,710.553,931.027,680.039C927.637,672.129,906.164,666.478,876.78,666.478C876.78,666.478,827.054,666.478,827.054,666.478C827.054,666.478,823.664,613.361,823.664,613.361C821.404,574.937,814.623,557.985,803.321,555.724C793.15,554.594,781.849,555.724,777.328,560.245C777.328,560.245,777.328,560.245,777.328,560.245" class="icon-insert-row-above"/><glyph unicode="&#x006d;" d="M290.641,59.187C283.439,66.39,278.295,94.169,278.295,120.92C278.295,120.92,278.295,170.305,278.295,170.305C278.295,170.305,183.639,170.305,183.639,170.305C183.639,170.305,88.983,170.305,88.983,170.305C88.983,170.305,116.762,141.497,116.762,141.497C145.571,111.66,152.773,83.88,133.224,71.534C118.82,63.303,0.5,178.536,0.5,201.171C0.5,222.778,104.416,324.636,127.051,324.636C154.83,324.636,147.628,292.741,111.618,255.702C111.618,255.702,78.694,221.749,78.694,221.749C78.694,221.749,178.494,221.749,178.494,221.749C178.494,221.749,278.295,221.749,278.295,221.749C278.295,221.749,280.353,547.901,280.353,547.901C280.353,547.901,283.439,875.081,283.439,875.081C283.439,875.081,440.856,878.168,440.856,878.168C533.455,879.197,597.244,877.139,597.244,870.966C597.244,831.869,586.956,828.782,457.318,828.782C457.318,828.782,329.738,828.782,329.738,828.782C329.738,828.782,329.738,463.533,329.738,463.533C329.738,463.533,329.738,98.285,329.738,98.285C329.738,98.285,509.791,98.285,509.791,98.285C509.791,98.285,689.843,98.285,689.843,98.285C689.843,98.285,689.843,330.809,689.843,330.809C689.843,538.641,691.9,562.305,706.305,557.16C715.564,554.074,726.882,550.987,732.026,550.987C737.171,550.987,741.286,448.1,741.286,305.087C741.286,90.054,739.228,58.159,724.824,53.014C692.929,40.668,304.017,45.812,290.641,59.187C290.641,59.187,290.641,59.187,290.641,59.187M741.286,574.651C636.341,608.604,578.725,748.53,627.082,854.504C709.391,1036.614,975.868,1011.921,1019.081,818.493C1055.091,653.874,905.905,522.179,741.286,574.651C741.286,574.651,741.286,574.651,741.286,574.651M910.021,647.701C959.407,684.74,985.128,754.703,968.666,808.205C953.233,859.648,905.905,906.976,854.462,922.409C779.354,945.044,683.669,886.399,664.121,805.118C647.659,739.27,689.843,656.961,756.719,627.124C800.961,606.546,867.837,615.806,910.021,647.701C910.021,647.701,910.021,647.701,910.021,647.701M799.932,649.759C795.816,653.874,792.73,677.538,792.73,701.202C792.73,701.202,792.73,745.444,792.73,745.444C792.73,745.444,744.373,748.53,744.373,748.53C703.218,751.617,694.987,754.703,694.987,772.194C694.987,789.685,703.218,792.772,744.373,795.858C744.373,795.858,792.73,798.945,792.73,798.945C792.73,798.945,792.73,844.215,792.73,844.215C792.73,870.966,797.874,890.514,806.105,893.601C832.856,902.861,844.173,887.428,844.173,843.186C844.173,843.186,844.173,797.916,844.173,797.916C844.173,797.916,889.443,797.916,889.443,797.916C933.685,797.916,949.118,786.598,939.858,758.819C936.771,751.617,917.223,746.472,890.472,746.472C890.472,746.472,845.202,746.472,845.202,746.472C845.202,746.472,842.115,698.116,842.115,698.116C840.058,663.134,833.884,647.701,823.596,645.643C814.336,644.614,804.047,645.643,799.932,649.759C799.932,649.759,799.932,649.759,799.932,649.759" class="icon-insert-column-left"/><glyph unicode="&#x006e;" d="M18.6,68.2C13.8,71,7.8,77,5,81.8C5,81.8,0,90.4,0,90.4C0,90.4,0.4,340.4,0.4,340.4C0.4,340.4,1,590.2,1,590.2C1,590.2,5.8,597.2,5.8,597.2C8.4,601,13.8,606.4,17.8,609.2C17.8,609.2,25,614,25,614C25,614,100,614.6,100,614.6C100,614.6,175.2,615.2,175.2,615.2C175.2,615.2,180.4,596.6,180.4,596.6C183.2,586.4,189.4,569.4,194,559C198.6,548.6,202.8,538.8,203.4,537.4C204.2,535.6,191.2,535,142.2,535C142.2,535,80,535,80,535C80,535,80,339,80,339C80,339,80,143,80,143C80,143,512,143,512,143C512,143,944,143,944,143C944,143,944,339,944,339C944,339,944,535,944,535C944,535,881.8,535,881.8,535C832.8,535,819.8,535.6,820.6,537.4C821.2,538.8,825.4,548.6,830,559C834.6,569.4,840.8,586.4,843.6,596.6C843.6,596.6,848.8,615.2,848.8,615.2C848.8,615.2,924,614.6,924,614.6C924,614.6,999,614,999,614C999,614,1006.2,609.2,1006.2,609.2C1010.2,606.4,1015.6,601,1018.2,597.2C1018.2,597.2,1023,590.2,1023,590.2C1023,590.2,1023.6,340.4,1023.6,340.4C1023.6,340.4,1024,90.4,1024,90.4C1024,90.4,1019,81.8,1019,81.8C1016,76.6,1010.4,71,1005.2,68C1005.2,68,996.6,63,996.6,63C996.6,63,511.8,63,511.8,63C511.8,63,27,63,27,63C27,63,18.6,68.2,18.6,68.2C18.6,68.2,18.6,68.2,18.6,68.2M501,424.4C380,430,280.8,511,250.8,628.6C241.4,665.8,241,716.8,250,754.8C271.4,844.8,337.6,918,424,947.6C479.2,966.4,544.8,966.4,600,947.6C675,922,738.2,860,764.8,786C803.8,677.6,769.8,555,681.2,483.8C630.2,443,565.2,421.6,501,424.4C501,424.4,501,424.4,501,424.4M654,693C654,693,654,731,654,731C654,731,512,731,512,731C512,731,370,731,370,731C370,731,370,693,370,693C370,693,370,655,370,655C370,655,512,655,512,655C512,655,654,655,654,655C654,655,654,693,654,693C654,693,654,693,654,693" class="icon-delete-row"/><glyph unicode="&#x006f;" d="M81.6,5.2C76.8,8,70.8,14,68,18.8C68,18.8,63,27.4,63,27.4C63,27.4,63,512,63,512C63,512,63,996.6,63,996.6C63,996.6,68,1005.2,68,1005.2C71,1010.4,76.6,1016,81.8,1019C81.8,1019,90.4,1024,90.4,1024C90.4,1024,340.4,1023.6,340.4,1023.6C340.4,1023.6,590.2,1023,590.2,1023C590.2,1023,597.2,1018.2,597.2,1018.2C601,1015.6,606.4,1010.2,609.2,1006.2C609.2,1006.2,614,999,614,999C614,999,614.6,923.8,614.6,923.8C614.6,923.8,615.2,848.4,615.2,848.4C615.2,848.4,604.6,846,604.6,846C590.4,842.6,560,831.6,547.4,825.2C541.8,822.4,536.6,820,536,820C535.4,820,535,847.8,535,882C535,882,535,944,535,944C535,944,339,944,339,944C339,944,143,944,143,944C143,944,143,512,143,512C143,512,143,80,143,80C143,80,339,80,339,80C339,80,535,80,535,80C535,80,535,142,535,142C535,176,535.4,204,536,204C536.6,204,541.8,201.6,547.4,198.8C560,192.4,590.4,181.4,604.6,178C604.6,178,615.2,175.6,615.2,175.6C615.2,175.6,614.6,100.2,614.6,100.2C614.6,100.2,614,25,614,25C614,25,609.2,17.8,609.2,17.8C606.4,13.8,601,8.4,597.2,5.8C597.2,5.8,590.2,1,590.2,1C590.2,1,340.2,0.6,340.2,0.6C340.2,0.6,90,0,90,0C90,0,81.6,5.2,81.6,5.2C81.6,5.2,81.6,5.2,81.6,5.2M670,244.2C649.2,245.8,625.2,250.6,608,256.4C591.8,261.8,558.6,278,544,287.8C482.6,328.6,439.4,395.4,427.8,467.6C424,492,424,532,427.8,556.4C443,650.8,509,730.6,600,764.6C656.2,785.8,727.4,786,785.4,765C848.6,742.2,904,692.4,934.6,631C953.2,593.2,961.4,557.2,961.4,512C961.4,464.8,953.2,429.8,932.4,389C882.8,292.2,779,234.8,670,244.2C670,244.2,670,244.2,670,244.2M835,512C835,512,835,550,835,550C835,550,693,550,693,550C693,550,551,550,551,550C551,550,551,512,551,512C551,512,551,474,551,474C551,474,693,474,693,474C693,474,835,474,835,474C835,474,835,512,835,512C835,512,835,512,835,512" class="icon-delete-column"/><glyph unicode="&#x0070;" d="M947.562,76.971C896.581,25.991,834.952,0.5,762.67,0.5C690.39,0.5,628.92,26.15,578.26,77.45C578.26,77.45,526.289,128.43,526.289,128.43C526.289,128.43,639.219,192.395,639.219,192.395C639.219,192.395,664.196,168.408,664.196,168.408C690.199,141.767,721.99,128.43,759.633,128.43C797.276,128.43,829.419,141.767,856.092,168.408C882.765,195.049,896.102,227.224,896.07,264.867C896.038,302.51,882.733,334.333,856.092,360.304C856.092,360.304,668.194,549.193,668.194,549.193C668.194,549.193,744.153,650.129,744.153,650.129C744.153,650.129,947.05,446.24,947.05,446.24C998.35,395.612,1024,334.142,1024,261.83C1024,189.516,998.509,127.886,947.529,76.938C947.529,76.938,947.562,76.971,947.562,76.971M231.474,633.146C231.474,633.146,576.277,512.22,576.277,512.22C576.277,512.22,544.294,384.29,544.294,384.29C544.294,384.29,194.469,514.235,194.469,514.235C124.524,532.242,71.528,572.219,35.548,634.17C-0.432,696.12,-9.099,761.747,9.547,831.054C28.192,900.36,68.842,952.812,131.495,988.472C194.15,1024.132,260.449,1032.959,330.395,1014.953C330.395,1014.953,544.294,927.993,544.294,927.993C544.294,927.993,512.312,800.063,512.312,800.063C512.312,800.063,301.419,894.027,301.419,894.027C265.439,903.367,231.121,898.697,198.467,880.019C165.813,861.341,144.513,834.029,134.502,798.048C124.492,762.068,129.001,727.943,147.999,695.608C166.997,663.273,194.822,642.453,231.442,633.146C231.442,633.146,231.474,633.146,231.474,633.146" class="icon-unlink"/><glyph unicode="&#x0071;" d="M672.408,1023.835C672.408,1023.835,672.408,1022.907,672.408,1022.907C668.281,1022.907,651.259,1024.507,608.418,1023.835C608.418,1023.835,224.48,1023.835,224.48,1023.835C153.802,1023.835,96.5,966.533,96.5,895.856C96.5,895.856,96.5,127.978,96.5,127.978C96.5,57.302,153.802,0,224.48,0C224.48,0,800.387,0,800.387,0C871.065,0,928.367,57.302,928.367,127.978C928.367,127.978,928.367,767.877,928.367,767.877C928.367,767.877,672.408,1023.835,672.408,1023.835C672.408,1023.835,672.408,1023.835,672.408,1023.835M864.377,127.978C864.377,92.657,835.743,63.989,800.387,63.989C800.387,63.989,224.48,63.989,224.48,63.989C189.125,63.989,160.49,92.657,160.49,127.978C160.49,127.978,160.49,895.856,160.49,895.856C160.49,931.21,189.125,959.846,224.48,959.846C224.48,959.846,607.522,959.846,607.522,959.846C606.946,883.217,608.418,831.866,608.418,831.866C608.418,761.188,665.72,703.886,736.397,703.886C736.397,703.886,789.86,703.886,864.376,703.886C864.376,703.886,864.376,127.978,864.376,127.978C864.376,127.978,864.377,127.978,864.377,127.978M736.397,767.876C701.042,767.876,672.408,796.543,672.408,831.866C672.408,831.866,672.408,883.666,672.408,959.846C672.408,959.846,864.376,767.877,864.376,767.877C864.376,767.877,736.397,767.877,736.397,767.877C736.397,767.877,736.397,767.876,736.397,767.876" class="icon-empty-file"/><glyph unicode="&#x0072;" d="M896,1024C896,1024,384,1024,384,1024C242.624,1024,128,909.376,128,768C128,626.624,242.624,512,384,512C384,512,384,0,384,0C384,0,512,0,512,0C512,0,512,896,512,896C512,896,640,896,640,896C640,896,640,0,640,0C640,0,768,0,768,0C768,0,768,896,768,896C768,896,896,896,896,896C896,896,896,1024,896,1024C896,1024,896,1024,896,1024" class="icon-paragraph-style"/><glyph unicode="&#x0073;" d="M960,832.5C960,832.5,64,832.5,64,832.5C46.656,832.5,31.648,838.676,19.008,850.996C6.368,863.316,0.032,878.324,0,895.988C-0.032,913.652,6.304,928.82,19.008,941.492C31.712,954.164,46.688,960.5,64,960.5C64,960.5,384,960.5,384,960.5C384,977.844,390.176,992.852,402.496,1005.492C414.816,1018.132,429.984,1024.468,448,1024.5C448,1024.5,576,1024.5,576,1024.5C594.016,1024.5,609.184,1018.164,621.504,1005.492C633.824,992.82,640,977.812,640,960.5C640,960.5,960,960.5,960,960.5C977.344,960.5,992.352,954.164,1004.992,941.492C1017.632,928.82,1023.968,913.652,1024,895.988C1024.032,878.324,1017.696,863.316,1004.992,850.996C992.288,838.676,977.312,832.5,960,832.5C960,832.5,960,832.5,960,832.5M128,768.5C146.016,768.5,161.184,762.164,173.504,749.492C185.824,736.82,192,721.812,192,704.5C192,704.5,192,192.5,192,192.5C192,174.484,198.336,159.316,211.008,146.996C223.68,134.676,238.688,128.5,256,128.5C256,128.5,768,128.5,768,128.5C785.344,128.5,800.352,134.676,812.992,146.996C825.632,159.316,831.968,174.484,832,192.5C832,192.5,832,704.5,832,704.5C832,721.844,838.176,736.852,850.496,749.492C862.816,762.132,877.824,768.468,895.488,768.5C913.152,768.532,928.32,762.196,940.992,749.492C953.664,736.788,960,721.812,960,704.5C960,704.5,960,128.5,960,128.5C960,93.172,947.488,62.996,922.496,38.004C897.504,13.012,867.328,0.5,832,0.5C832,0.5,192,0.5,192,0.5C156.672,0.5,126.496,13.012,101.504,38.004C76.512,62.996,64,93.172,64,128.5C64,128.5,64,704.5,64,704.5C64,721.844,70.176,736.852,82.496,749.492C94.816,762.132,109.984,768.468,128,768.5C128,768.5,128,768.5,128,768.5" class="icon-trash"/><glyph unicode="&#x0074;" d="M875.126,873.121C778.798,969.449,650.726,1022.497,514.502,1022.497C417.156,1022.497,320.785,995.147,240.321,945.105C240.321,945.105,171.715,1013.711,171.715,1013.711C164.585,1020.843,154.349,1023.915,144.469,1021.885C134.591,1019.857,126.391,1013.003,122.647,1003.639C122.647,1003.639,2.647,703.639,2.647,703.639C-1.811,692.497,0.803,679.769,9.289,671.285C15.025,665.549,22.697,662.497,30.507,662.497C34.253,662.497,38.031,663.199,41.643,664.643C41.643,664.643,341.643,784.643,341.643,784.643C351.007,788.389,357.861,796.587,359.889,806.465C361.917,816.343,358.845,826.581,351.715,833.711C351.715,833.711,284.041,901.385,284.041,901.385C352.551,940.973,433.08,962.499,514.502,962.499C634.702,962.499,747.706,915.691,832.7,830.697C917.694,745.703,964.502,632.697,964.502,512.5C964.502,392.302,917.692,279.294,832.7,194.3C819.53,181.13,805.346,168.662,790.544,157.242C777.426,147.12,774.998,128.282,785.118,115.164C791.028,107.504,799.91,103.49,808.892,103.49C815.29,103.49,821.738,105.528,827.196,109.74C844.02,122.722,860.146,136.898,875.124,151.876C971.452,248.202,1024.5,376.274,1024.5,512.5C1024.5,648.725,971.452,776.795,875.126,873.121C875.126,873.121,875.126,873.121,875.126,873.121M84.353,746.349C84.353,746.349,161.459,939.113,161.459,939.113C161.459,939.113,277.119,823.453,277.119,823.453C277.119,823.453,84.353,746.349,84.353,746.349C84.353,746.349,84.353,746.349,84.353,746.349M750.674,533.906C750.674,533.906,531.518,749.061,531.518,749.061C519.772,760.593,500.928,760.505,489.288,748.867C489.288,748.867,274.133,533.712,274.133,533.712C262.417,521.996,262.417,503.002,274.133,491.286C274.133,491.286,489.288,276.13,489.288,276.13C495.142,270.274,502.82,267.342,510.502,267.342C518.09,267.342,525.68,270.204,531.518,275.934C531.518,275.934,750.674,491.09,750.674,491.09C756.42,496.73,759.658,504.444,759.658,512.498C759.658,520.55,756.42,528.264,750.674,533.906C750.674,533.906,750.674,533.906,750.674,533.906M510.696,339.576C510.696,339.576,337.773,512.5,337.773,512.5C337.773,512.5,510.696,685.423,510.696,685.423C510.696,685.423,686.836,512.5,686.836,512.5C686.836,512.5,510.696,339.576,510.696,339.576C510.696,339.576,510.696,339.576,510.696,339.576M113.151,301.014C104.371,317.494,96.551,334.704,89.905,352.17C84.013,367.656,66.683,375.432,51.197,369.542C35.711,363.65,27.935,346.32,33.825,330.834C41.363,311.022,50.235,291.498,60.195,272.802C65.593,262.672,75.969,256.902,86.699,256.902C91.455,256.902,96.285,258.038,100.779,260.43C115.403,268.22,120.941,286.39,113.151,301.014C113.151,301.014,113.151,301.014,113.151,301.014M218.301,170.242C209.393,177.864,200.647,185.958,192.303,194.3C187.397,199.206,182.547,204.282,177.887,209.386C166.717,221.624,147.743,222.492,135.505,211.32C123.267,200.152,122.401,181.176,133.571,168.938C138.843,163.162,144.327,157.42,149.877,151.872C159.313,142.436,169.209,133.28,179.289,124.654C184.945,119.814,191.879,117.446,198.781,117.446C207.243,117.446,215.655,121.008,221.589,127.942C232.361,140.532,230.889,159.468,218.301,170.242C218.301,170.242,218.301,170.242,218.301,170.242M63.417,461.202C61.483,478.16,60.501,495.42,60.501,512.498C60.501,529.066,47.069,542.498,30.501,542.498C13.933,542.498,0.501,529.066,0.501,512.498C0.501,493.156,1.613,473.61,3.803,454.404C5.549,439.096,18.525,427.8,33.573,427.8C34.709,427.8,35.855,427.866,37.009,427.996C53.471,429.874,65.295,444.742,63.417,461.202C63.417,461.202,63.417,461.202,63.417,461.202M363.829,86.958C346.157,93.034,328.705,100.29,311.961,108.52C297.091,115.83,279.111,109.702,271.803,94.832C264.493,79.962,270.621,61.984,285.491,54.674C304.485,45.338,324.277,37.108,344.321,30.216C347.553,29.104,350.841,28.578,354.077,28.578C366.531,28.578,378.169,36.394,382.445,48.832C387.831,64.502,379.497,81.572,363.829,86.958C363.829,86.958,363.829,86.958,363.829,86.958M733.234,84.732C726.674,99.946,709.024,106.962,693.808,100.404C676.658,93.01,658.83,86.582,640.824,81.302C624.924,76.64,615.816,59.97,620.48,44.072C624.316,30.99,636.278,22.506,649.254,22.506C652.05,22.506,654.892,22.9,657.71,23.726C678.046,29.69,698.184,36.95,717.562,45.306C732.776,51.866,739.794,69.516,733.234,84.732C733.234,84.732,733.234,84.732,733.234,84.732M529.888,62.912C511.2,62.116,492.26,62.482,473.66,64C457.152,65.354,442.666,53.054,441.318,36.542C439.97,20.03,452.264,5.548,468.776,4.2C482.59,3.072,496.63,2.5,510.502,2.5C517.782,2.5,525.164,2.658,532.444,2.968C548.998,3.674,561.846,17.664,561.14,34.218C560.432,50.77,546.472,63.596,529.888,62.912C529.888,62.912,529.888,62.912,529.888,62.912" class="icon-rotate-left"/><glyph unicode="&#x0075;" d="M149.874,873.121C246.202,969.449,374.274,1022.497,510.498,1022.497C607.844,1022.497,704.215,995.147,784.679,945.105C784.679,945.105,853.285,1013.711,853.285,1013.711C860.415,1020.843,870.651,1023.915,880.531,1021.885C890.409,1019.857,898.609,1013.003,902.353,1003.639C902.353,1003.639,1022.353,703.639,1022.353,703.639C1026.811,692.497,1024.197,679.769,1015.711,671.285C1009.975,665.549,1002.303,662.497,994.493,662.497C990.747,662.497,986.969,663.199,983.357,664.643C983.357,664.643,683.357,784.643,683.357,784.643C673.993,788.389,667.139,796.587,665.111,806.465C663.083,816.343,666.155,826.581,673.285,833.711C673.285,833.711,740.959,901.385,740.959,901.385C672.449,940.973,591.92,962.499,510.498,962.499C390.298,962.499,277.294,915.691,192.3,830.697C107.306,745.703,60.498,632.697,60.498,512.5C60.498,392.302,107.308,279.294,192.3,194.3C205.47,181.13,219.654,168.662,234.456,157.242C247.574,147.12,250.002,128.282,239.882,115.164C233.972,107.504,225.09,103.49,216.108,103.49C209.71,103.49,203.262,105.528,197.804,109.74C180.98,122.722,164.854,136.898,149.876,151.876C53.548,248.202,0.5,376.274,0.5,512.5C0.5,648.725,53.548,776.795,149.874,873.121C149.874,873.121,149.874,873.121,149.874,873.121M940.647,746.349C940.647,746.349,863.541,939.113,863.541,939.113C863.541,939.113,747.881,823.453,747.881,823.453C747.881,823.453,940.647,746.349,940.647,746.349C940.647,746.349,940.647,746.349,940.647,746.349M274.326,533.906C274.326,533.906,493.482,749.061,493.482,749.061C505.228,760.593,524.072,760.505,535.712,748.867C535.712,748.867,750.867,533.712,750.867,533.712C762.583,521.996,762.583,503.002,750.867,491.286C750.867,491.286,535.712,276.13,535.712,276.13C529.858,270.274,522.18,267.342,514.498,267.342C506.91,267.342,499.32,270.204,493.482,275.934C493.482,275.934,274.326,491.09,274.326,491.09C268.58,496.73,265.342,504.444,265.342,512.498C265.342,520.55,268.58,528.264,274.326,533.906C274.326,533.906,274.326,533.906,274.326,533.906M514.304,339.576C514.304,339.576,687.227,512.5,687.227,512.5C687.227,512.5,514.304,685.423,514.304,685.423C514.304,685.423,338.164,512.5,338.164,512.5C338.164,512.5,514.304,339.576,514.304,339.576C514.304,339.576,514.304,339.576,514.304,339.576M911.849,301.014C920.629,317.494,928.449,334.704,935.095,352.17C940.987,367.656,958.317,375.432,973.803,369.542C989.289,363.65,997.065,346.32,991.175,330.834C983.637,311.022,974.765,291.498,964.805,272.802C959.407,262.672,949.031,256.902,938.301,256.902C933.545,256.902,928.715,258.038,924.221,260.43C909.597,268.22,904.059,286.39,911.849,301.014C911.849,301.014,911.849,301.014,911.849,301.014M806.699,170.242C815.607,177.864,824.353,185.958,832.697,194.3C837.603,199.206,842.453,204.282,847.113,209.386C858.283,221.624,877.257,222.492,889.495,211.32C901.733,200.152,902.599,181.176,891.429,168.938C886.157,163.162,880.673,157.42,875.123,151.872C865.687,142.436,855.791,133.28,845.711,124.654C840.055,119.814,833.121,117.446,826.219,117.446C817.757,117.446,809.345,121.008,803.411,127.942C792.639,140.532,794.111,159.468,806.699,170.242C806.699,170.242,806.699,170.242,806.699,170.242M961.583,461.202C963.517,478.16,964.499,495.42,964.499,512.498C964.499,529.066,977.931,542.498,994.499,542.498C1011.067,542.498,1024.499,529.066,1024.499,512.498C1024.499,493.156,1023.387,473.61,1021.197,454.404C1019.451,439.096,1006.475,427.8,991.427,427.8C990.291,427.8,989.145,427.866,987.991,427.996C971.529,429.874,959.705,444.742,961.583,461.202C961.583,461.202,961.583,461.202,961.583,461.202M661.171,86.958C678.843,93.034,696.295,100.29,713.039,108.52C727.909,115.83,745.889,109.702,753.197,94.832C760.507,79.962,754.379,61.984,739.509,54.674C720.515,45.338,700.723,37.108,680.679,30.216C677.447,29.104,674.159,28.578,670.923,28.578C658.469,28.578,646.831,36.394,642.555,48.832C637.169,64.502,645.503,81.572,661.171,86.958C661.171,86.958,661.171,86.958,661.171,86.958M291.766,84.732C298.326,99.946,315.976,106.962,331.192,100.404C348.342,93.01,366.17,86.582,384.176,81.302C400.076,76.64,409.184,59.97,404.52,44.072C400.684,30.99,388.722,22.506,375.746,22.506C372.95,22.506,370.108,22.9,367.29,23.726C346.954,29.69,326.816,36.95,307.438,45.306C292.224,51.866,285.206,69.516,291.766,84.732C291.766,84.732,291.766,84.732,291.766,84.732M495.112,62.912C513.8,62.116,532.74,62.482,551.34,64C567.848,65.354,582.334,53.054,583.682,36.542C585.03,20.03,572.736,5.548,556.224,4.2C542.41,3.072,528.37,2.5,514.498,2.5C507.218,2.5,499.836,2.658,492.556,2.968C476.002,3.674,463.154,17.664,463.86,34.218C464.568,50.77,478.528,63.596,495.112,62.912C495.112,62.912,495.112,62.912,495.112,62.912" class="icon-rotate-right"/><glyph unicode="&#x0076;" d="M608,1024C608,1024,608,0,608,0C608,0,992,0,992,0C992,0,608,1024,608,1024C608,1024,608,1024,608,1024M32,0C32,0,416,0,416,0C416,0,416,1024,416,1024C416,1024,32,0,32,0C32,0,32,0,32,0" class="icon-mirror-horizontal"/><glyph unicode="&#x0077;" d="M1024,416C1024,416,0,416,0,416C0,416,0,32,0,32C0,32,1024,416,1024,416C1024,416,1024,416,1024,416M0,992C0,992,0,608,0,608C0,608,1024,608,1024,608C1024,608,0,992,0,992C0,992,0,992,0,992" class="icon-mirror-vertical"/><glyph unicode="&#x0078;" d="M918.515,0C647.837,0,377.163,0,106.512,0C104.659,0.652,102.833,1.564,100.933,1.9C53.938,10.314,22.639,37.26,6.703,82.069C3.96,89.787,2.542,98.005,0.5,105.988C0.5,376.662,0.5,647.337,0.5,917.992C1.147,919.865,2.038,921.667,2.4,923.59C12.04,975.201,42.687,1007.223,93.095,1020.756C97.546,1021.958,102.038,1022.921,106.512,1024C339.18,1024,571.829,1024,804.497,1024C833.56,1017.585,856.373,1000.25,877.072,980.418C911.448,947.463,945.197,913.83,978.252,879.526C999.043,857.965,1017.721,834.454,1024.499,804C1024.499,571.328,1024.499,338.656,1024.499,105.988C1023.853,104.137,1022.962,102.333,1022.601,100.41C1012.96,48.776,982.336,16.78,931.904,3.22C927.48,2.043,922.984,1.059,918.515,0C918.515,0,918.515,0,918.515,0M512.573,39.185C628.894,39.185,745.194,39.158,861.495,39.231C891.086,39.231,906.686,54.784,906.686,84.065C906.71,211.707,906.71,339.354,906.686,466.978C906.686,496.376,890.965,512.243,861.856,512.243C628.894,512.266,395.961,512.266,163.023,512.243C134.372,512.217,118.336,496.326,118.336,467.818C118.289,339.859,118.289,211.877,118.359,83.92C118.359,79.28,118.482,74.521,119.539,70.049C124.324,49.809,139.516,39.232,163.675,39.208C279.974,39.156,396.273,39.185,512.573,39.185C512.573,39.185,512.573,39.185,512.573,39.185M492.499,629.79C575.481,629.79,658.44,629.79,741.396,629.79C773.272,629.813,788.611,645.078,788.611,676.858C788.635,763.828,788.635,850.779,788.611,937.749C788.611,969.745,773.583,984.794,741.516,984.794C575.579,984.817,409.664,984.817,243.749,984.794C212.327,984.794,196.969,969.602,196.946,938.35C196.873,851.065,196.873,763.782,196.946,676.474C196.969,645.249,212.498,629.814,243.629,629.814C326.584,629.79,409.543,629.79,492.499,629.79C492.499,629.79,492.499,629.79,492.499,629.79M592.357,944.527C631.372,944.527,669.255,944.527,708.031,944.527C708.031,853.11,708.031,762.148,708.031,670.608C669.543,670.608,631.371,670.608,592.357,670.608C592.357,761.666,592.357,852.651,592.357,944.527C592.357,944.527,592.357,944.527,592.357,944.527" class="icon-save-disket"/><glyph unicode="&#x0079;" d="M1024,439C1024,439,0,439,0,439C0,439,0,585.286,0,585.286C0,585.286,1024,585.286,1024,585.286C1024,585.286,1024,439,1024,439C1024,439,1024,439,1024,439" class="icon-hr"/><glyph unicode="&#x007a;" d="M11.815,472.962C3.938,480.838,0,492.654,0,500.531C0,508.408,3.938,520.223,11.815,528.1C11.815,528.1,66.954,583.238,66.954,583.238C82.708,598.992,106.338,598.992,122.092,583.238C122.092,583.238,126.031,579.3,126.031,579.3C126.031,579.3,342.646,346.931,342.646,346.931C350.523,339.054,362.338,339.054,370.215,346.931C370.215,346.931,897.969,894.377,897.969,894.377C897.969,894.377,901.908,894.377,901.908,894.377C901.908,894.377,901.908,894.377,901.908,894.377C917.662,910.131,941.292,910.131,957.046,894.377C957.046,894.377,1012.185,839.238,1012.185,839.238C1027.938,823.485,1027.938,799.854,1012.185,784.1C1012.185,784.1,1012.185,784.1,1012.185,784.1C1012.185,784.1,382.031,130.315,382.031,130.315C374.154,122.438,366.277,118.5,354.462,118.5C342.646,118.5,334.769,122.438,326.892,130.315C326.892,130.315,19.692,461.146,19.692,461.146C19.692,461.146,11.815,472.962,11.815,472.962C11.815,472.962,11.815,472.962,11.815,472.962" class="icon-checked"/><glyph unicode="&#x0030;" d="M819.2,0C819.2,0,721.92,0,721.92,0C721.92,0,721.92,51.2,721.92,51.2C721.92,51.2,819.2,51.2,819.2,51.2C819.2,51.2,819.2,0,819.2,0C819.2,0,819.2,0,819.2,0M624.64,0C624.64,0,527.36,0,527.36,0C527.36,0,527.36,51.2,527.36,51.2C527.36,51.2,624.64,51.2,624.64,51.2C624.64,51.2,624.64,0,624.64,0C624.64,0,624.64,0,624.64,0M430.08,0C430.08,0,332.8,0,332.8,0C332.8,0,332.8,51.2,332.8,51.2C332.8,51.2,430.08,51.2,430.08,51.2C430.08,51.2,430.08,0,430.08,0C430.08,0,430.08,0,430.08,0M235.52,0C235.52,0,138.24,0,138.24,0C138.24,0,138.24,51.2,138.24,51.2C138.24,51.2,235.52,51.2,235.52,51.2C235.52,51.2,235.52,0,235.52,0C235.52,0,235.52,0,235.52,0M921.6,0C921.6,0,911.36,51.2,911.36,51.2C936.96,56.32,957.44,71.68,967.68,92.16C967.68,92.16,1013.76,71.68,1013.76,71.68C998.4,30.72,962.56,5.12,921.6,0C921.6,0,921.6,0,921.6,0M30.72,40.96C10.24,61.44,0,92.16,0,122.88C0,122.88,0,148.48,0,148.48C0,148.48,51.2,148.48,51.2,148.48C51.2,148.48,51.2,122.88,51.2,122.88C51.2,107.52,56.32,87.04,66.56,76.8C66.56,76.8,30.72,40.96,30.72,40.96C30.72,40.96,30.72,40.96,30.72,40.96M1024,179.2C1024,179.2,972.8,179.2,972.8,179.2C972.8,179.2,972.8,276.48,972.8,276.48C972.8,276.48,1024,276.48,1024,276.48C1024,276.48,1024,179.2,1024,179.2C1024,179.2,1024,179.2,1024,179.2M51.2,245.76C51.2,245.76,0,245.76,0,245.76C0,245.76,0,343.04,0,343.04C0,343.04,51.2,343.04,51.2,343.04C51.2,343.04,51.2,245.76,51.2,245.76C51.2,245.76,51.2,245.76,51.2,245.76M1024,373.76C1024,373.76,972.8,373.76,972.8,373.76C972.8,373.76,972.8,471.04,972.8,471.04C972.8,471.04,1024,471.04,1024,471.04C1024,471.04,1024,373.76,1024,373.76C1024,373.76,1024,373.76,1024,373.76M51.2,440.32C51.2,440.32,0,440.32,0,440.32C0,440.32,0,537.6,0,537.6C0,537.6,51.2,537.6,51.2,537.6C51.2,537.6,51.2,440.32,51.2,440.32C51.2,440.32,51.2,440.32,51.2,440.32M1024,568.32C1024,568.32,972.8,568.32,972.8,568.32C972.8,568.32,972.8,665.6,972.8,665.6C972.8,665.6,1024,665.6,1024,665.6C1024,665.6,1024,568.32,1024,568.32C1024,568.32,1024,568.32,1024,568.32M51.2,634.88C51.2,634.88,0,634.88,0,634.88C0,634.88,0,737.28,0,737.28C0,737.28,51.2,737.28,51.2,737.28C51.2,737.28,51.2,634.88,51.2,634.88C51.2,634.88,51.2,634.88,51.2,634.88M1024,762.88C1024,762.88,972.8,762.88,972.8,762.88C972.8,762.88,972.8,860.16,972.8,860.16C972.8,860.16,1024,860.16,1024,860.16C1024,860.16,1024,762.88,1024,762.88C1024,762.88,1024,762.88,1024,762.88M51.2,834.56C51.2,834.56,0,834.56,0,834.56C0,834.56,0,901.12,0,901.12C0,911.36,0,926.72,5.12,936.96C5.12,936.96,51.2,921.6,51.2,921.6C51.2,921.6,51.2,834.56,51.2,834.56C51.2,834.56,51.2,834.56,51.2,834.56M962.56,942.08C952.32,962.56,926.72,972.8,901.12,972.8C901.12,972.8,901.12,1024,901.12,1024C942.08,1024,983.04,1003.52,1003.52,967.68C1003.52,967.68,962.56,942.08,962.56,942.08C962.56,942.08,962.56,942.08,962.56,942.08M102.4,972.8C102.4,972.8,87.04,1018.88,87.04,1018.88C97.28,1024,112.64,1024,122.88,1024C122.88,1024,220.16,1024,220.16,1024C220.16,1024,220.16,972.8,220.16,972.8C220.16,972.8,102.4,972.8,102.4,972.8C102.4,972.8,102.4,972.8,102.4,972.8M803.84,972.8C803.84,972.8,706.56,972.8,706.56,972.8C706.56,972.8,706.56,1024,706.56,1024C706.56,1024,803.84,1024,803.84,1024C803.84,1024,803.84,972.8,803.84,972.8C803.84,972.8,803.84,972.8,803.84,972.8M609.28,972.8C609.28,972.8,512,972.8,512,972.8C512,972.8,512,1024,512,1024C512,1024,609.28,1024,609.28,1024C609.28,1024,609.28,972.8,609.28,972.8C609.28,972.8,609.28,972.8,609.28,972.8M414.72,972.8C414.72,972.8,317.44,972.8,317.44,972.8C317.44,972.8,317.44,1024,317.44,1024C317.44,1024,414.72,1024,414.72,1024C414.72,1024,414.72,972.8,414.72,972.8C414.72,972.8,414.72,972.8,414.72,972.8M102.4,819.2C102.4,819.2,921.6,819.2,921.6,819.2C921.6,819.2,921.6,563.2,921.6,563.2C921.6,563.2,102.4,563.2,102.4,563.2C102.4,563.2,102.4,819.2,102.4,819.2" class="icon-table-header"/></font>
</defs>
</svg>
