<?xml version="1.0" encoding="iso-8859-1"?>
<!-- Generator: Adobe Illustrator 18.1.1, SVG Export Plug-In . SVG Version: 6.00 Build 0)  -->
<svg version="1.1" id="Capa_1" xmlns="http://www.w3.org/2000/svg" xmlns:xlink="http://www.w3.org/1999/xlink" x="0px" y="0px"
	 viewBox="0 0 441 441" style="enable-background:new 0 0 441 441;" xml:space="preserve">
<g>
	<g>
		<path style="fill:#090509;" d="M417,19.5c14,0,24,10,24,24s-10,25-24,25H25c-14,0-25-11-25-25s11-24,25-24H417z"/>
		<path style="fill:#090509;" d="M334,186.5H108c-14,0-24-11-24-25s10-24,24-24h226c14,0,24,10,24,24S348,186.5,334,186.5z"/>
		<path style="fill:#090509;" d="M50,279.5c0-14,11-25,25-25h292c14,0,24,11,24,25s-10,24-24,24H75C61,303.5,50,293.5,50,279.5z"/>
		<path style="fill:#090509;" d="M406,372.5c14,0,25,10,25,24s-11,25-25,25H35c-14,0-24-11-24-25s10-24,24-24H406z"/>
	</g>
</g>
<g>
</g>
<g>
</g>
<g>
</g>
<g>
</g>
<g>
</g>
<g>
</g>
<g>
</g>
<g>
</g>
<g>
</g>
<g>
</g>
<g>
</g>
<g>
</g>
<g>
</g>
<g>
</g>
<g>
</g>
</svg>
