<?xml version="1.0" encoding="iso-8859-1"?>
<!-- Generator: Adobe Illustrator 16.0.0, SVG Export Plug-In . SVG Version: 6.00 Build 0)  -->
<!DOCTYPE svg PUBLIC "-//W3C//DTD SVG 1.1//EN" "http://www.w3.org/Graphics/SVG/1.1/DTD/svg11.dtd">
<svg version="1.1" id="Capa_1" xmlns="http://www.w3.org/2000/svg" xmlns:xlink="http://www.w3.org/1999/xlink" x="0px" y="0px"
	 width="612px" height="612px" viewBox="0 0 612 612" style="enable-background:new 0 0 612 612;" xml:space="preserve">
<g>
	<g id="full_screen">
		<g>
			<path d="M561,0H51C22.882,0,0,22.882,0,51v510c0,28.118,22.882,51,51,51h510c28.118,0,51-22.882,51-51V51
				C612,22.882,589.118,0,561,0z M578,561c0,9.367-7.633,17-17,17H51c-9.367,0-17-7.633-17-17V51c0-9.367,7.633-17,17-17h510
				c9.367,0,17,7.633,17,17V561z M68,186.15L186.15,68H68V186.15z M544,186.15V68H425L544,186.15z M68,544h118.15L68,425V544z
				 M544,544V425L425,544H544z"/>
		</g>
	</g>
</g>
<g>
</g>
<g>
</g>
<g>
</g>
<g>
</g>
<g>
</g>
<g>
</g>
<g>
</g>
<g>
</g>
<g>
</g>
<g>
</g>
<g>
</g>
<g>
</g>
<g>
</g>
<g>
</g>
<g>
</g>
</svg>
