<?xml version="1.0" encoding="iso-8859-1"?>
<!-- Generator: Adobe Illustrator 16.0.0, SVG Export Plug-In . SVG Version: 6.00 Build 0)  -->
<!DOCTYPE svg PUBLIC "-//W3C//DTD SVG 1.1//EN" "http://www.w3.org/Graphics/SVG/1.1/DTD/svg11.dtd">
<svg version="1.1" id="Capa_1" xmlns="http://www.w3.org/2000/svg" xmlns:xlink="http://www.w3.org/1999/xlink" x="0px" y="0px"
	 width="28.784px" height="28.784px" viewBox="0 0 28.784 28.784" style="enable-background:new 0 0 28.784 28.784;"
	 xml:space="preserve">
<g>
	<path d="M24.322,23.385v5.399H4.462v-3.529c2.31-0.956,4.879-3.438,4.879-6.397c0-0.611-0.042-1.133-0.131-1.742H4.941v-4.486
		h3.483c-0.215-1.088-0.348-2.354-0.348-3.526C8.076,3.615,12.084,0,17.916,0c2.396,0,4.183,0.521,5.14,1.045l-1.09,5.009
		c-0.824-0.479-2.046-0.783-3.654-0.783c-3.094,0-4.049,2.002-4.049,4.094c0,1.134,0.128,2.179,0.389,3.267h5.969v4.486h-5.4
		c0.043,1.09-0.043,2.088-0.394,3.092c-0.391,1.091-1.088,2.179-2.133,3.093v0.086h11.629V23.385z"/>
</g>
<g>
</g>
<g>
</g>
<g>
</g>
<g>
</g>
<g>
</g>
<g>
</g>
<g>
</g>
<g>
</g>
<g>
</g>
<g>
</g>
<g>
</g>
<g>
</g>
<g>
</g>
<g>
</g>
<g>
</g>
</svg>
