<?xml version="1.0" encoding="iso-8859-1"?>
<!-- Generator: Adobe Illustrator 16.0.0, SVG Export Plug-In . SVG Version: 6.00 Build 0)  -->
<!DOCTYPE svg PUBLIC "-//W3C//DTD SVG 1.1//EN" "http://www.w3.org/Graphics/SVG/1.1/DTD/svg11.dtd">
<svg version="1.1" id="Capa_1" xmlns="http://www.w3.org/2000/svg" xmlns:xlink="http://www.w3.org/1999/xlink" x="0px" y="0px"
	 width="90.971px" height="90.972px" viewBox="0 0 90.971 90.972" style="enable-background:new 0 0 90.971 90.972;"
	 xml:space="preserve">
<g>
	<g>
		<path d="M76.081,19.371H67.27V0H23.702v19.371h-8.81c-7.564,0-13.698,18.212-13.698,24.135v21.098
			c0,5.922,6.134,10.727,13.698,10.727h7.264v15.642h46.66V75.328h7.265c7.563,0,13.697-4.803,13.697-10.727V43.506
			C89.778,37.583,83.644,19.371,76.081,19.371z M28.299,4.596h34.375v39.268H28.299V4.596z M70.157,70.093h-6.212v16.063H27.027
			V70.093h-6.212v-3.218h49.342V70.093z M76.055,57.283c-1.629,0-2.948-1.319-2.948-2.948s1.319-2.95,2.948-2.95
			c1.63,0,2.951,1.321,2.951,2.95S77.685,57.283,76.055,57.283z"/>
		<rect x="30.549" y="70.484" width="29.875" height="4.25"/>
		<rect x="30.549" y="77.859" width="29.875" height="4.25"/>
	</g>
</g>
<g>
</g>
<g>
</g>
<g>
</g>
<g>
</g>
<g>
</g>
<g>
</g>
<g>
</g>
<g>
</g>
<g>
</g>
<g>
</g>
<g>
</g>
<g>
</g>
<g>
</g>
<g>
</g>
<g>
</g>
</svg>
