<?xml version="1.0" encoding="iso-8859-1"?>
<!-- Generator: Adobe Illustrator 18.1.1, SVG Export Plug-In . SVG Version: 6.00 Build 0)  -->
<svg version="1.1" id="Capa_1" xmlns="http://www.w3.org/2000/svg" xmlns:xlink="http://www.w3.org/1999/xlink" x="0px" y="0px"
	 viewBox="0 0 612.002 612.002" style="enable-background:new 0 0 612.002 612.002;" xml:space="preserve">
<g>
	<path d="M594.464,534.414H344.219L606.866,271.77c6.848-6.851,6.848-17.953,0-24.8L407.547,47.65
		c-3.291-3.288-7.749-5.135-12.401-5.135c-4.65,0-9.11,1.847-12.398,5.135L5.138,425.262c-6.851,6.848-6.851,17.95,0,24.8
		l114.29,114.287c3.288,3.291,7.749,5.138,12.398,5.138h462.638c9.684,0,17.536-7.852,17.536-17.536
		C612,542.265,604.148,534.414,594.464,534.414z M395.145,84.851L569.664,259.37L363.27,465.763L188.753,291.245L395.145,84.851z
		 M294.618,534.414H139.09L42.336,437.66l121.617-121.617l174.519,174.519L294.618,534.414z"/>
</g>
<g>
</g>
<g>
</g>
<g>
</g>
<g>
</g>
<g>
</g>
<g>
</g>
<g>
</g>
<g>
</g>
<g>
</g>
<g>
</g>
<g>
</g>
<g>
</g>
<g>
</g>
<g>
</g>
<g>
</g>
</svg>
