<?xml version="1.0" encoding="iso-8859-1"?>
<!-- Generator: Adobe Illustrator 16.0.0, SVG Export Plug-In . SVG Version: 6.00 Build 0)  -->
<!DOCTYPE svg PUBLIC "-//W3C//DTD SVG 1.1//EN" "http://www.w3.org/Graphics/SVG/1.1/DTD/svg11.dtd">
<svg version="1.1" id="Capa_1" xmlns="http://www.w3.org/2000/svg" xmlns:xlink="http://www.w3.org/1999/xlink" x="0px" y="0px"
	 width="355.189px" height="355.189px" viewBox="0 0 355.189 355.189" style="enable-background:new 0 0 355.189 355.189;"
	 xml:space="preserve">
<g>
	<path d="M44.945,0H200.8c30.595,0,55.006,8.298,73.211,24.887c18.205,16.592,27.308,38.095,27.308,64.517
		c0,15.941-3.989,30.487-11.963,43.615c-7.979,13.128-19.86,23.315-35.647,30.559c22.159,8.379,30.458,19.497,40.885,33.352
		c10.426,13.854,15.651,31.652,15.651,53.392c0,30.612-11.054,55.739-33.136,75.397c-22.089,19.648-43.285,29.472-79.559,29.472
		H44.945V0z M100.291,150.293h79.242c25.452,0,37.451-4.631,49.29-13.896c11.833-9.262,17.762-23.714,17.762-43.373
		c0-16.917-5.604-29.799-16.798-38.659c-11.195-8.854-23.348-13.291-49.757-13.291h-79.739V150.293z M100.291,314.109h94.469
		c25.12,0,34.66-5.84,47.227-17.525c12.555-11.674,18.832-27.42,18.832-47.232c0-20.138-6.999-35.157-21.019-45.063
		c-14.015-9.907-25.393-14.86-52.783-14.86h-86.732v124.682H100.291z"/>
</g>
<g>
</g>
<g>
</g>
<g>
</g>
<g>
</g>
<g>
</g>
<g>
</g>
<g>
</g>
<g>
</g>
<g>
</g>
<g>
</g>
<g>
</g>
<g>
</g>
<g>
</g>
<g>
</g>
<g>
</g>
</svg>
