<?xml version="1.0" encoding="iso-8859-1"?>
<!-- Generator: Adobe Illustrator 16.0.0, SVG Export Plug-In . SVG Version: 6.00 Build 0)  -->
<!DOCTYPE svg PUBLIC "-//W3C//DTD SVG 1.1//EN" "http://www.w3.org/Graphics/SVG/1.1/DTD/svg11.dtd">
<svg version="1.1" id="Capa_1" xmlns="http://www.w3.org/2000/svg" xmlns:xlink="http://www.w3.org/1999/xlink" x="0px" y="0px"
	 width="348.025px" height="348.025px" viewBox="0 0 348.025 348.025" style="enable-background:new 0 0 348.025 348.025;"
	 xml:space="preserve">
<g>
	<path d="M276.878,204.577c3.795,8.973,5.739,19.28,5.739,31.002c0,30.659-11.213,55.55-33.62,74.671
		c-22.414,19.115-52.358,28.667-89.809,28.667c-43.668,0-76.704-9.067-99.124-27.214c-22.411-18.146-33.815-45.453-34.197-81.946
		h50.649c0.774,21.539,7.903,37.545,21.388,48.031c13.491,10.474,33.727,15.723,60.698,15.723c21.935,0,39.342-4.362,52.251-13.099
		c12.915-8.736,19.364-20.859,19.364-36.387c0-11.064-4.18-19.896-12.514-26.492c-5.757-4.539-15.498-8.86-29.01-12.95h88.183
		V204.577z M155.285,143.445l-12.097-3.056c-23.879-6.011-39.41-11.695-46.577-17.026c-7.19-5.335-10.772-13.63-10.772-24.891
		c0-14.162,6.064-25.032,18.193-32.604s26.729-11.349,43.813-11.349c23.475,0,41.476,4.072,53.995,12.227
		c12.513,8.15,19.163,21.542,19.942,40.169h50.655c-1.158-28.525-11.786-51.961-31.882-70.3
		C220.472,18.27,191.604,9.108,153.949,9.108c-35.317,0-63.946,8.928-85.875,26.782c-21.929,17.856-32.891,42.114-32.891,72.776
		c0,13.281,2.76,24.846,8.154,34.791h111.947V143.445z M332.895,158.576H15.131C6.773,158.576,0,165.351,0,173.708
		c0,8.36,6.773,15.135,15.131,15.135h317.763c8.357,0,15.131-6.774,15.131-15.135C348.025,165.351,341.252,158.576,332.895,158.576z
		"/>
</g>
<g>
</g>
<g>
</g>
<g>
</g>
<g>
</g>
<g>
</g>
<g>
</g>
<g>
</g>
<g>
</g>
<g>
</g>
<g>
</g>
<g>
</g>
<g>
</g>
<g>
</g>
<g>
</g>
<g>
</g>
</svg>
