<?xml version="1.0" encoding="iso-8859-1"?>
<!-- Generator: Adobe Illustrator 16.0.0, SVG Export Plug-In . SVG Version: 6.00 Build 0)  -->
<!DOCTYPE svg PUBLIC "-//W3C//DTD SVG 1.1//EN" "http://www.w3.org/Graphics/SVG/1.1/DTD/svg11.dtd">
<svg version="1.1" id="Capa_1" xmlns="http://www.w3.org/2000/svg" xmlns:xlink="http://www.w3.org/1999/xlink" x="0px" y="0px"
	 width="97.794px" height="97.794px" viewBox="0 0 97.794 97.794" style="enable-background:new 0 0 97.794 97.794;"
	 xml:space="preserve">
<g>
	<g>
		<path d="M53.641,61.4c-0.545-0.195-1.156-0.059-1.564,0.353L32.801,81.027c-2.138,2.139-4.985,3.314-8.017,3.314
			c-3.032,0-5.878-1.177-8.015-3.314c-4.42-4.422-4.42-11.614,0-16.034l19.273-19.271c0.41-0.41,0.547-1.02,0.352-1.565
			c-0.195-0.546-0.688-0.931-1.264-0.987l-13.457-1.337c-0.451-0.052-0.891,0.113-1.209,0.432L7.251,55.477
			C2.575,60.152,0,66.379,0,73.01s2.575,12.857,7.251,17.533c4.675,4.676,10.902,7.251,17.533,7.251
			c6.631,0,12.858-2.575,17.534-7.251l13.213-13.212c0.318-0.317,0.477-0.763,0.432-1.209l-1.335-13.458
			C54.57,62.088,54.188,61.596,53.641,61.4z"/>
		<path d="M90.544,7.251C85.868,2.575,79.641,0,73.01,0S60.152,2.575,55.477,7.251L42.263,20.464
			c-0.318,0.317-0.477,0.762-0.432,1.209l1.337,13.458c0.057,0.577,0.442,1.069,0.988,1.264c0.546,0.196,1.155,0.059,1.565-0.352
			l19.272-19.275c2.138-2.138,4.985-3.315,8.017-3.315c3.032,0,5.879,1.178,8.018,3.315c4.42,4.42,4.42,11.612,0,16.033
			L61.754,52.074c-0.41,0.41-0.547,1.021-0.352,1.566s0.688,0.93,1.264,0.986l13.456,1.337c0.05,0.007,0.099,0.009,0.147,0.009
			c0.396,0,0.778-0.156,1.062-0.439l13.213-13.214C100.211,32.651,100.211,16.919,90.544,7.251z"/>
		<path d="M8.841,37.696c0.009,0,0.018,0,0.026,0l16.194-0.282c0.741-0.013,1.362-0.565,1.46-1.301
			c0.098-0.735-0.355-1.432-1.067-1.64L9.905,29.939c-0.42-0.123-0.873-0.056-1.238,0.184c-0.366,0.238-0.61,0.624-0.668,1.058
			l-0.645,4.816c-0.058,0.434,0.076,0.87,0.367,1.196C8.005,37.513,8.413,37.696,8.841,37.696z"/>
		<path d="M34.476,25.454c0.188,0.646,0.781,1.08,1.439,1.08c0.066,0,0.133-0.004,0.2-0.014c0.735-0.098,1.288-0.719,1.301-1.46
			l0.281-16.194c0.007-0.438-0.176-0.856-0.503-1.146c-0.327-0.29-0.763-0.425-1.197-0.365l-4.816,0.648
			c-0.433,0.058-0.819,0.303-1.057,0.669c-0.238,0.366-0.305,0.818-0.183,1.237L34.476,25.454z"/>
		<path d="M88.928,60.098l-16.193,0.281c-0.742,0.014-1.362,0.564-1.461,1.301c-0.099,0.735,0.354,1.432,1.066,1.641l15.549,4.535
			c0.139,0.039,0.279,0.06,0.42,0.06c0.289,0,0.572-0.083,0.818-0.243c0.366-0.238,0.609-0.624,0.668-1.059l0.646-4.815
			c0.058-0.435-0.076-0.87-0.367-1.196C89.783,60.273,89.346,60.079,88.928,60.098z"/>
		<path d="M63.318,72.342c-0.207-0.712-0.898-1.174-1.639-1.066c-0.734,0.1-1.287,0.72-1.301,1.461l-0.281,16.191
			c-0.007,0.438,0.176,0.856,0.502,1.146c0.276,0.246,0.633,0.38,0.998,0.38c0.066,0,0.133-0.005,0.2-0.015l4.815-0.646
			c0.434-0.058,0.82-0.302,1.059-0.668c0.238-0.367,0.305-0.819,0.184-1.237L63.318,72.342z"/>
	</g>
</g>
<g>
</g>
<g>
</g>
<g>
</g>
<g>
</g>
<g>
</g>
<g>
</g>
<g>
</g>
<g>
</g>
<g>
</g>
<g>
</g>
<g>
</g>
<g>
</g>
<g>
</g>
<g>
</g>
<g>
</g>
</svg>
