<?xml version="1.0" encoding="iso-8859-1"?>
<!-- Generator: Adobe Illustrator 16.0.0, SVG Export Plug-In . SVG Version: 6.00 Build 0)  -->
<!DOCTYPE svg PUBLIC "-//W3C//DTD SVG 1.1//EN" "http://www.w3.org/Graphics/SVG/1.1/DTD/svg11.dtd">
<svg version="1.1" id="Capa_1" xmlns="http://www.w3.org/2000/svg" xmlns:xlink="http://www.w3.org/1999/xlink" x="0px" y="0px"
	 width="47.825px" height="47.825px" viewBox="0 0 47.825 47.825" style="enable-background:new 0 0 47.825 47.825;"
	 xml:space="preserve">
<g>
	<g>
		<g>
			<path d="M36.439,12.646c0-6.919-5.608-12.527-12.528-12.527S11.384,5.727,11.384,12.646c0,9.913,12.527,24.582,12.527,24.582
				S36.439,22.508,36.439,12.646z M17.733,11.898c0-3.413,2.767-6.179,6.179-6.179s6.179,2.766,6.179,6.179
				c0,3.413-2.767,6.179-6.179,6.179S17.733,15.311,17.733,11.898z"/>
			<circle cx="23.911" cy="11.898" r="3.038"/>
			<path d="M30.994,32.87c-1.021,1.476-1.979,2.761-2.777,3.793c7.916,0.476,13.104,2.185,15.034,3.456
				c-2.261,1.491-8.979,3.587-19.338,3.587c-10.358,0-17.077-2.097-19.338-3.587c1.93-1.271,7.114-2.979,15.022-3.455
				c-0.8-1.032-1.759-2.316-2.781-3.792C7.075,33.831,0,36.713,0,40.118c0,4.19,10.707,7.588,23.913,7.588
				c13.207,0,23.912-3.396,23.912-7.588C47.827,36.711,40.744,33.828,30.994,32.87z"/>
		</g>
	</g>
</g>
<g>
</g>
<g>
</g>
<g>
</g>
<g>
</g>
<g>
</g>
<g>
</g>
<g>
</g>
<g>
</g>
<g>
</g>
<g>
</g>
<g>
</g>
<g>
</g>
<g>
</g>
<g>
</g>
<g>
</g>
</svg>
