<?xml version="1.0" encoding="iso-8859-1"?>
<!-- Generator: Adobe Illustrator 18.0.0, SVG Export Plug-In . SVG Version: 6.00 Build 0)  -->
<!DOCTYPE svg PUBLIC "-//W3C//DTD SVG 1.1//EN" "http://www.w3.org/Graphics/SVG/1.1/DTD/svg11.dtd">
<svg version="1.1" id="Capa_1" xmlns="http://www.w3.org/2000/svg" xmlns:xlink="http://www.w3.org/1999/xlink" x="0px" y="0px"
	 viewBox="0 0 490.89 490.89" style="enable-background:new 0 0 490.89 490.89;" xml:space="preserve">
<g id="XMLID_231_">
	<path id="XMLID_233_" d="M97.38,292.692V181.229c0-24.324,19.792-44.125,44.134-44.125h170.733v19.506
		c0,5.525,3.065,10.59,7.941,13.162c4.884,2.59,10.786,2.229,15.343-0.885l100.888-69.057c3.607-2.475,5.771-6.557,5.788-10.934
		c0.015-4.377-2.124-8.49-5.722-10.965L335.63,7.956c-4.548-3.146-10.483-3.508-15.383-0.949c-4.91,2.557-7.975,7.653-7.975,13.178
		v19.539H141.515C63.483,39.724,0,103.208,0,181.229v111.463c0,26.881,21.801,48.684,48.689,48.684
		C75.58,341.376,97.38,319.573,97.38,292.692z"/>
	<path id="XMLID_232_" d="M442.199,149.513c-26.891,0-48.691,21.801-48.691,48.701V309.64c0,24.342-19.793,44.143-44.134,44.143
		H178.641v-19.506c0-5.523-3.065-10.588-7.941-13.162c-4.884-2.572-10.786-2.23-15.343,0.887L54.468,391.056
		c-3.606,2.477-5.771,6.572-5.786,10.951c-0.017,4.359,2.122,8.475,5.72,10.965l100.856,69.961
		c4.548,3.147,10.482,3.504,15.384,0.965c4.908-2.572,7.974-7.654,7.974-13.195v-19.539h170.756
		c78.031,0,141.516-63.498,141.516-141.523V198.214C490.89,171.313,469.088,149.513,442.199,149.513z"/>
</g>
<g>
</g>
<g>
</g>
<g>
</g>
<g>
</g>
<g>
</g>
<g>
</g>
<g>
</g>
<g>
</g>
<g>
</g>
<g>
</g>
<g>
</g>
<g>
</g>
<g>
</g>
<g>
</g>
<g>
</g>
</svg>
