<?xml version="1.0" encoding="iso-8859-1"?>
<!-- Generator: Adobe Illustrator 16.0.0, SVG Export Plug-In . SVG Version: 6.00 Build 0)  -->
<!DOCTYPE svg PUBLIC "-//W3C//DTD SVG 1.1//EN" "http://www.w3.org/Graphics/SVG/1.1/DTD/svg11.dtd">
<svg version="1.1" id="Capa_1" xmlns="http://www.w3.org/2000/svg" xmlns:xlink="http://www.w3.org/1999/xlink" x="0px" y="0px"
	 width="32px" height="32px" viewBox="0 0 32 32" style="enable-background:new 0 0 32 32;" xml:space="preserve">
<g>
	<g id="Web">
		<g>
			<path d="M29,0H3C1.346,0,0,1.346,0,3v26c0,1.654,1.346,3,3,3h26c1.654,0,3-1.346,3-3V3C32,1.346,30.654,0,29,0z M30,29
				c0,0.552-0.448,1-1,1H3c-0.552,0-1-0.448-1-1V3c0-0.551,0.448-1,1-1h26c0.552,0,1,0.449,1,1V29z M26,4H6C4.897,4,4,4.896,4,6v4
				c0,1.103,0.897,2,2,2h20c1.104,0,2-0.897,2-2V6C28,4.896,27.104,4,26,4z M6,10V6h20l0.001,4H6z M10,14H6c-1.103,0-2,0.897-2,2v10
				c0,1.104,0.897,2,2,2h4c1.103,0,2-0.896,2-2V16C12,14.897,11.103,14,10,14z M6,26V16h4l0.001,10H6z M26,14H16
				c-1.103,0-2,0.897-2,2v10c0,1.104,0.897,2,2,2h10c1.104,0,2-0.896,2-2V16C28,14.897,27.104,14,26,14z M16,26V16h10l0.001,10H16z"
				/>
		</g>
	</g>
</g>
<g>
</g>
<g>
</g>
<g>
</g>
<g>
</g>
<g>
</g>
<g>
</g>
<g>
</g>
<g>
</g>
<g>
</g>
<g>
</g>
<g>
</g>
<g>
</g>
<g>
</g>
<g>
</g>
<g>
</g>
</svg>
