<?xml version="1.0" encoding="iso-8859-1"?>
<!-- Generator: Adobe Illustrator 16.0.0, SVG Export Plug-In . SVG Version: 6.00 Build 0)  -->
<!DOCTYPE svg PUBLIC "-//W3C//DTD SVG 1.1//EN" "http://www.w3.org/Graphics/SVG/1.1/DTD/svg11.dtd">
<svg version="1.1" id="Capa_1" xmlns="http://www.w3.org/2000/svg" xmlns:xlink="http://www.w3.org/1999/xlink" x="0px" y="0px"
	 width="32.52px" height="32.52px" viewBox="0 0 32.52 32.52" style="enable-background:new 0 0 32.52 32.52;" xml:space="preserve"
	>
<g>
	<path d="M22.662,1.194l-7.282,11.74l7.762,12.506h-5.397l-3.481-5.826c-0.532-0.898-1.042-1.812-1.528-2.735l-0.496-0.959
		l-0.516-0.941h-0.07l-0.516,0.959c-0.616,1.163-1.314,2.387-2.098,3.678l-3.498,5.826H0l7.958-12.506L0.569,1.195h5.487l3.231,5.4
		c0.511,0.852,0.99,1.693,1.438,2.521l0.445,0.852l0.444,0.854h0.069c0.201-0.379,0.349-0.662,0.444-0.854l0.443-0.834
		c0.379-0.734,0.854-1.574,1.422-2.521l3.232-5.418L22.662,1.194L22.662,1.194z M32.52,29.571v1.754h-8.82v-2.377
		c0-1.229,0.222-2.049,0.662-2.455c0.441-0.402,1.492-0.754,3.15-1.051c1.373-0.244,2.186-0.471,2.439-0.67
		c0.254-0.203,0.379-0.729,0.379-1.568c0-0.811-0.125-1.32-0.379-1.537c-0.254-0.219-0.855-0.326-1.81-0.326
		c-0.979,0-1.6,0.109-1.854,0.33c-0.256,0.219-0.385,0.754-0.385,1.604v0.494H23.73v-0.486c0-1.465,0.303-2.451,0.905-2.957
		c0.604-0.508,1.774-0.762,3.515-0.762c1.696,0,2.852,0.258,3.457,0.77c0.606,0.514,0.911,1.488,0.911,2.924
		c0,1.355-0.231,2.265-0.692,2.724c-0.461,0.456-1.523,0.843-3.188,1.149c-1.373,0.25-2.17,0.461-2.396,0.637
		c-0.223,0.176-0.332,0.67-0.332,1.49v0.316L32.52,29.571L32.52,29.571z"/>
</g>
<g>
</g>
<g>
</g>
<g>
</g>
<g>
</g>
<g>
</g>
<g>
</g>
<g>
</g>
<g>
</g>
<g>
</g>
<g>
</g>
<g>
</g>
<g>
</g>
<g>
</g>
<g>
</g>
<g>
</g>
</svg>
