<?xml version="1.0" encoding="iso-8859-1"?>
<!-- Generator: Adobe Illustrator 16.0.0, SVG Export Plug-In . SVG Version: 6.00 Build 0)  -->
<!DOCTYPE svg PUBLIC "-//W3C//DTD SVG 1.1//EN" "http://www.w3.org/Graphics/SVG/1.1/DTD/svg11.dtd">
<svg version="1.1" id="Capa_1" xmlns="http://www.w3.org/2000/svg" xmlns:xlink="http://www.w3.org/1999/xlink" x="0px" y="0px"
	 width="430.924px" height="430.924px" viewBox="0 0 430.924 430.924" style="enable-background:new 0 0 430.924 430.924;"
	 xml:space="preserve">
<g>
	<g>
		<path d="M134,403.243c22.641,10.875,47.469,17.813,73.719,19.813v-64.813c-14.594-1.625-28.672-4.906-41.625-10.594L134,403.243z"
			/>
		<path d="M366.109,199.868h64.814c-8.25-107.219-97.939-192-207.203-192c-64.282,0-124.719,30.094-163.813,79.969L0.125,53.274
			L0,251.118l171.391-98.813l-55.094-31.875c27.063-30.313,66-48.563,107.421-48.563
			C297.672,71.868,358.047,128.055,366.109,199.868z"/>
		<path d="M108.219,301.024l-55.984,32.312c14.531,21.156,32.859,39.47,54.016,54.031l32.313-56
			C126.985,322.805,116.782,312.586,108.219,301.024z"/>
		<path d="M239.735,358.243v64.813c26.25-2,51.063-8.938,73.688-19.813l-32.064-55.594
			C268.359,353.336,254.297,356.618,239.735,358.243z"/>
		<path d="M308.859,331.368l32.314,56c21.188-14.562,39.5-32.875,54.062-54.031l-56-32.312
			C330.672,312.586,320.484,322.805,308.859,331.368z"/>
		<path d="M355.547,273.461l55.562,32.094c10.875-22.625,17.814-47.438,19.814-73.688h-64.814
			C364.484,246.461,361.172,260.524,355.547,273.461z"/>
	</g>
</g>
<g>
</g>
<g>
</g>
<g>
</g>
<g>
</g>
<g>
</g>
<g>
</g>
<g>
</g>
<g>
</g>
<g>
</g>
<g>
</g>
<g>
</g>
<g>
</g>
<g>
</g>
<g>
</g>
<g>
</g>
</svg>
