<?xml version="1.0" encoding="iso-8859-1"?>
<!-- Generator: Adobe Illustrator 16.0.0, SVG Export Plug-In . SVG Version: 6.00 Build 0)  -->
<!DOCTYPE svg PUBLIC "-//W3C//DTD SVG 1.1//EN" "http://www.w3.org/Graphics/SVG/1.1/DTD/svg11.dtd">
<svg version="1.1" id="Capa_1" xmlns="http://www.w3.org/2000/svg" xmlns:xlink="http://www.w3.org/1999/xlink" x="0px" y="0px"
	 width="56.401px" height="56.4px" viewBox="0 0 56.401 56.4" style="enable-background:new 0 0 56.401 56.4;" xml:space="preserve"
	>
<g>
	<g>
		<polygon points="33.721,6.26 26.215,6.26 22.83,12.858 29.901,12.858 		"/>
		<polygon points="46.521,6.26 39.015,6.26 35.63,12.858 42.701,12.858 		"/>
		<polygon points="56.25,6.26 51.816,6.26 48.43,12.858 56.25,12.858 		"/>
		<polygon points="20.92,6.358 0,6.358 0,8.214 0,12.858 17.101,12.858 		"/>
		<path d="M0.15,45.974c0,2.302,1.866,4.167,4.167,4.167h47.917c2.301,0,4.167-1.865,4.167-4.167V17.154H0.15V45.974z
			 M21.208,29.655c0-2.301,1.669-3.332,3.727-2.303l8.864,4.432c2.058,1.028,2.058,2.697,0,3.727l-8.864,4.432
			c-2.058,1.028-3.727-0.003-3.727-2.303V29.655z"/>
	</g>
</g>
<g>
</g>
<g>
</g>
<g>
</g>
<g>
</g>
<g>
</g>
<g>
</g>
<g>
</g>
<g>
</g>
<g>
</g>
<g>
</g>
<g>
</g>
<g>
</g>
<g>
</g>
<g>
</g>
<g>
</g>
</svg>
