<?xml version="1.0" encoding="iso-8859-1"?>
<!-- Generator: Adobe Illustrator 16.0.0, SVG Export Plug-In . SVG Version: 6.00 Build 0)  -->
<!DOCTYPE svg PUBLIC "-//W3C//DTD SVG 1.1//EN" "http://www.w3.org/Graphics/SVG/1.1/DTD/svg11.dtd">
<svg xmlns="http://www.w3.org/2000/svg" xmlns:xlink="http://www.w3.org/1999/xlink" version="1.1" id="Capa_1" x="0px" y="0px" width="512px" height="512px" viewBox="0 0 190.248 190.248" style="enable-background:new 0 0 190.248 190.248;" xml:space="preserve">
<g>
	<path d="M96.325,33.622c-0.698,0.075-1.305,0.259-1.854,0.501c-70.059-19.235-93.525,101.7-28.344,125.682   c39.391,14.494,82.937-10.701,92.181-50.52C167.315,70.486,138.156,29.111,96.325,33.622z M145.95,108.723   c-8.009,34.243-48.106,51.381-79.692,37.964c-24.455-10.388-30.62-39.809-25.293-63.42c5.872-26.023,25.985-42.145,52.007-40.854   c0.808,0.75,1.912,1.292,3.354,1.426c17.389,1.625,32.562,5.355,43.054,20.466C148.28,77.122,149.41,93.93,145.95,108.723z" fill="#D80027"/>
	<path d="M98.697,1.673c-0.117-0.072-0.234-0.145-0.352-0.217c-1.187-0.734-2.854-0.734-4.041,0   c-0.117,0.072-0.234,0.145-0.351,0.217c-1.291,0.798-2.517,2.439-2.328,4.058c0.616,5.284,0.533,10.615,1.398,15.873   c0.54,3.282,6.063,3.282,6.604,0c0.866-5.258,0.782-10.589,1.397-15.873C101.213,4.112,99.988,2.47,98.697,1.673z" fill="#D80027"/>
	<path d="M131.25,9.711c-2.542-3.734-7.604-3.033-9.749,0.75c-2.285,4.027-2.615,9.44-3.438,13.898   c-0.613,3.323,4.125,5.887,5.805,2.446c1.212-2.483,2.334-5.005,3.488-7.516c0.493-1.071,1.03-2.118,1.616-3.14   c0.189-0.33,0.409-0.642,0.624-0.955C131.417,14.162,132.503,11.553,131.25,9.711z" fill="#D80027"/>
	<path d="M163.959,16.745c-4.428-0.113-7.203,4.557-9.896,7.446c-2.554,2.739-5.166,5.476-8.11,7.804   c-2.522,1.992,0.2,6.168,3.062,5.261c3.929-1.245,7.263-3.72,10.479-6.229c3.255-2.54,8.531-5.682,8.415-10.333   C167.852,18.5,166.153,16.801,163.959,16.745z" fill="#D80027"/>
	<path d="M181.062,51.13c-2.64,0.654-4.138,2.773-6.263,4.31c-1.872,1.355-4.014,2.341-6.332,2.55c-4.168,0.376-4.293,6.423,0,6.571   c3.004,0.104,5.908-0.526,8.644-1.76c3.308-1.491,7.239-3.665,8.265-7.356C186.105,52.813,183.632,50.493,181.062,51.13z" fill="#D80027"/>
	<path d="M188.414,96.334c-3.134-1.809-6.259-0.442-9.256,0.947c-2.36,1.094-4.488,2.59-6.152,4.603   c-2.107,2.549,0.726,7.213,3.815,4.944c1.391-1.022,2.926-1.771,4.556-2.326c2.349-0.8,4.876-0.219,7.037-1.635   C190.744,101.34,190.972,97.811,188.414,96.334z" fill="#D80027"/>
	<path d="M185.376,146.013c-1.151-3.623-5.108-5.529-8.19-7.475c-3.797-2.396-8.13-4.438-12.515-5.448   c-2.846-0.655-4.902,3.519-2.064,4.896c3.515,1.704,6.857,3.49,10.044,5.765c2.869,2.048,5.008,5.604,8.411,6.576   C183.564,151.041,186.189,148.573,185.376,146.013z" fill="#D80027"/>
	<path d="M147.624,167.947c-1.209-0.722-2.058-2.19-2.915-3.281c-1.095-1.392-2.194-2.786-3.519-3.97   c-2.803-2.507-6.378,1.223-4.061,4.061c0.959,1.175,1.67,2.58,2.409,3.898c0.886,1.581,1.871,3.113,2.603,4.773   c0.521,1.178,2.202,2.084,3.46,1.985c0.107-0.008,0.215-0.018,0.322-0.025c2.168-0.17,3.396-1.545,3.646-3.645   c0.013-0.112,0.026-0.226,0.039-0.337C149.77,170.045,148.728,168.605,147.624,167.947z" fill="#D80027"/>
	<path d="M102.893,183.375c-0.044-1.011-0.062-2.024-0.09-3.036c-0.053-2.026-0.048-4.33-0.708-6.259   c-0.547-1.6-2.164-3.525-4.092-2.94c-1.828,0.556-2.582,3.136-3.171,4.703c-0.29,0.771,0.077,1.354,0.638,1.654   c-0.229,1.163-0.457,2.325-0.673,3.491c-0.368,1.981-1.164,4.431,0.098,6.205c1.412,1.984,4.882,3.219,6.703,0.863   C102.819,186.478,102.973,185.234,102.893,183.375z" fill="#D80027"/>
	<path d="M57.168,164.227c-3.596,1.5-6.953,3.405-10.237,5.495c-2.872,1.827-6.621,3.627-8.171,6.767   c-1.856,3.757,1.813,7.142,5.478,5.478c2.042-0.927,4.608-3.64,6.826-5.521c2.712-2.302,5.493-4.62,8.51-6.515   C62.44,168.129,60.55,162.816,57.168,164.227z" fill="#D80027"/>
	<path d="M35.93,145.214c-1.194-0.184-2.05-0.802-3.167-1.059c-2.081-0.478-4.14-0.832-6.264-1.065   c-3.13-0.342-7.25-1.812-9.638,1.255c-0.645,0.829-0.869,1.733-0.821,2.6c-0.048,0.865,0.176,1.77,0.821,2.599   c2.292,2.944,6.096,1.642,9.011,1.323c2.152-0.235,4.258-0.529,6.369-1.014c1.317-0.302,2.32-0.967,3.69-1.179   C37.651,148.41,37.651,145.479,35.93,145.214z" fill="#D80027"/>
	<path d="M19.672,89.938c-3.271,0.179-6.491,0.611-9.772,0.351c-1.738-0.138-2.378-0.671-2.791-1.587   c-1.405-3.119-5.955-1.923-6.813,0.89c-1.239,4.062,1.558,7.958,5.641,8.611c5.088,0.813,10.593-0.807,15.198-2.862   C23.79,94.155,22.443,89.788,19.672,89.938z" fill="#D80027"/>
	<path d="M35.502,52.207c-3.797-2.979-6.903-6.61-9.566-10.622c-2.129-3.208-3.216-8.534-6.736-10.417   c-2.186-1.169-4.324-0.032-5.192,2.112c-1.796,4.435,2.996,9.974,5.577,13.204c3.403,4.259,7.318,7.967,11.968,10.839   C34.648,59.236,38.449,54.518,35.502,52.207z" fill="#D80027"/>
	<path d="M49.342,6.805c-1.994-1.784-5.489-1.205-6.184,1.633c-0.818,3.341,0.558,6.054,1.287,9.315   c0.874,3.913,1.062,7.971,1.333,11.959c0.28,4.125,6.13,4.128,6.406,0c0.258-3.866,0.47-7.718,0.361-11.595   C52.434,14.229,52.392,9.535,49.342,6.805z" fill="#D80027"/>
</g>
<g>
</g>
<g>
</g>
<g>
</g>
<g>
</g>
<g>
</g>
<g>
</g>
<g>
</g>
<g>
</g>
<g>
</g>
<g>
</g>
<g>
</g>
<g>
</g>
<g>
</g>
<g>
</g>
<g>
</g>
</svg>
